<mxfile host="app.diagrams.net" modified="2023-11-13T21:43:04.233Z" agent="Mozilla/5.0 (Windows NT 10.0; Win64; x64) AppleWebKit/537.36 (KHTML, like Gecko) Chrome/119.0.0.0 Safari/537.36 Edg/119.0.0.0" etag="VSpbuFv2P5i0tu1umdA7" version="22.1.0" type="device">
  <diagram name="Page-1" id="XTHh_ZCXDt1ors4ACBmL">
    <mxGraphModel dx="6168" dy="3508" grid="0" gridSize="10" guides="1" tooltips="1" connect="1" arrows="1" fold="1" page="0" pageScale="1" pageWidth="850" pageHeight="1100" math="0" shadow="0">
      <root>
        <mxCell id="0" />
        <mxCell id="1" parent="0" />
        <mxCell id="eTPqjNfUhPoHLtcQSdr4-2" value="Instapay" style="html=1;overflow=block;blockSpacing=1;whiteSpace=wrap;fontSize=41.7;fontColor=#3a414a;spacing=9;strokeColor=#3a414a;strokeOpacity=100;rounded=1;absoluteArcSize=1;arcSize=9;strokeWidth=0.8;lucidId=g0GLJfRsyMwj;" parent="1" vertex="1">
          <mxGeometry x="330" y="-849" width="1485" height="146" as="geometry" />
        </mxCell>
        <mxCell id="eTPqjNfUhPoHLtcQSdr4-3" value="User" style="html=1;overflow=block;blockSpacing=1;swimlane;childLayout=stackLayout;horizontal=1;horizontalStack=0;resizeParent=1;resizeParentMax=0;resizeLast=0;collapsible=0;fontStyle=0;marginBottom=0;swimlaneFillColor=#edf5ff;startSize=41;whiteSpace=wrap;fontSize=16.7;fontColor=#3a414a;align=center;spacing=0;strokeColor=#3a414a;strokeOpacity=100;fillOpacity=100;rounded=1;absoluteArcSize=1;arcSize=9;fillColor=#edf5ff;strokeWidth=1.5;" parent="1" vertex="1">
          <mxGeometry x="331" y="-410" width="555" height="323" as="geometry" />
        </mxCell>
        <mxCell id="eTPqjNfUhPoHLtcQSdr4-4" value="&lt;div style=&quot;display: flex; justify-content: null; text-align: null; align-items: baseline; font-size: 0; line-height: 1.25;margin-top: -2px;&quot;&gt;&lt;span&gt;&lt;div style=&quot;border-color: var(--border-color); display: flex; align-items: baseline; line-height: 1.25; margin-top: -2px;&quot;&gt;&lt;span style=&quot;border-color: var(--border-color);&quot;&gt;&lt;/span&gt;&lt;/div&gt;&lt;div style=&quot;border-color: var(--border-color); display: flex; align-items: baseline; line-height: 1.25; margin-top: -2px;&quot;&gt;&lt;span style=&quot;border-color: var(--border-color);&quot;&gt;&lt;span style=&quot;border-color: var(--border-color); font-size: 16.7px;&quot;&gt;&lt;br&gt;- UserName: String&lt;br&gt;- password:String&lt;br style=&quot;border-color: var(--border-color);&quot;&gt;&lt;/span&gt;&lt;/span&gt;&lt;/div&gt;&lt;div style=&quot;border-color: var(--border-color); display: flex; align-items: baseline; line-height: 1.25; margin-top: -2px;&quot;&gt;&lt;span style=&quot;border-color: var(--border-color);&quot;&gt;&lt;span style=&quot;border-color: var(--border-color); font-size: 16.7px;&quot;&gt;- MobileNo : String&lt;br style=&quot;border-color: var(--border-color);&quot;&gt;&lt;/span&gt;&lt;/span&gt;&lt;/div&gt;&lt;div style=&quot;border-color: var(--border-color); display: flex; align-items: baseline; line-height: 1.25; margin-top: -2px;&quot;&gt;&lt;span style=&quot;border-color: var(--border-color);&quot;&gt;&lt;span style=&quot;border-color: var(--border-color); font-size: 16.7px;&quot;&gt;- Balance: double&lt;/span&gt;&lt;/span&gt;&lt;span style=&quot;border-color: var(--border-color);&quot;&gt;&lt;span style=&quot;border-color: var(--border-color); font-size: 16.7px;&quot;&gt;&lt;br&gt;&lt;/span&gt;&lt;/span&gt;&lt;span style=&quot;border-color: var(--border-color);&quot;&gt;&lt;span style=&quot;border-color: var(--border-color); font-size: 16.7px;&quot;&gt;&lt;br&gt;&lt;/span&gt;&lt;/span&gt;&lt;span style=&quot;border-color: var(--border-color);&quot;&gt;&lt;span style=&quot;border-color: var(--border-color); font-size: 16.7px;&quot;&gt;&lt;br&gt;&lt;/span&gt;&lt;/span&gt;&lt;span style=&quot;border-color: var(--border-color);&quot;&gt;&lt;span style=&quot;border-color: var(--border-color); font-size: 16.7px;&quot;&gt;&amp;nbsp;&lt;/span&gt;&lt;/span&gt;&lt;span style=&quot;border-color: var(--border-color);&quot;&gt;&lt;span style=&quot;border-color: var(--border-color); font-size: 16.7px;&quot;&gt;&lt;br&gt;&lt;/span&gt;&lt;/span&gt;&lt;span style=&quot;border-color: var(--border-color);&quot;&gt;&lt;span style=&quot;border-color: var(--border-color); font-size: 16.7px;&quot;&gt;&lt;br&gt;&lt;/span&gt;&lt;/span&gt;&lt;/div&gt;&lt;/span&gt;&lt;/div&gt;&lt;div style=&quot;display: flex; justify-content: null; text-align: null; align-items: baseline; font-size: 0; line-height: 1.25;margin-top: -2px;&quot;&gt;&lt;span&gt;&lt;span style=&quot;font-size:16.7px;color:#3a414a;&quot;&gt;- signup : SignUp&lt;br&gt;&lt;/span&gt;&lt;/span&gt;&lt;/div&gt;&lt;div style=&quot;display: flex; justify-content: null; text-align: null; align-items: baseline; font-size: 0; line-height: 1.25;margin-top: -2px;&quot;&gt;&lt;span&gt;&lt;span style=&quot;font-size:16.7px;color:#3a414a;&quot;&gt;- signin : SignIn&lt;br&gt;&lt;/span&gt;&lt;/span&gt;&lt;/div&gt;&lt;div style=&quot;display: flex; justify-content: null; text-align: null; align-items: baseline; font-size: 0; line-height: 1.25;margin-top: -2px;&quot;&gt;&lt;span&gt;&lt;span style=&quot;font-size:16.7px;color:#3a414a;&quot;&gt;- Transfer: iTransfer&lt;br&gt;&lt;/span&gt;&lt;/span&gt;&lt;/div&gt;&lt;div style=&quot;display: flex; justify-content: null; text-align: null; align-items: baseline; font-size: 0; line-height: 1.25;margin-top: -2px;&quot;&gt;&lt;span&gt;&lt;span style=&quot;font-size:16.7px;color:#3a414a;&quot;&gt;- bill: BIIl&lt;br&gt;- Type: UserType&lt;/span&gt;&lt;/span&gt;&lt;/div&gt;" style="part=1;html=1;resizeHeight=0;strokeColor=none;fillColor=none;align=left;verticalAlign=middle;spacingLeft=4;spacingRight=4;overflow=hidden;rotatable=0;points=[[0,0.5],[1,0.5]];portConstraint=eastwest;swimlaneFillColor=#edf5ff;strokeOpacity=100;fillOpacity=100;whiteSpace=wrap;fontSize=16.7;fontColor=#3a414a;" parent="eTPqjNfUhPoHLtcQSdr4-3" vertex="1">
          <mxGeometry y="41" width="555" height="224" as="geometry" />
        </mxCell>
        <mxCell id="eTPqjNfUhPoHLtcQSdr4-5" value="" style="line;strokeWidth=1;fillColor=none;align=left;verticalAlign=middle;spacingTop=-1;spacingLeft=3;spacingRight=3;rotatable=0;labelPosition=right;points=[];portConstraint=eastwest;" parent="eTPqjNfUhPoHLtcQSdr4-3" vertex="1">
          <mxGeometry y="265" width="555" height="12" as="geometry" />
        </mxCell>
        <mxCell id="eTPqjNfUhPoHLtcQSdr4-6" value="+ VewBalance(): double&lt;br&gt;+ PrintAccountDetails(): String" style="part=1;resizeHeight=0;strokeColor=none;fillColor=none;align=left;verticalAlign=middle;spacingLeft=4;spacingRight=4;rotatable=0;points=[[0,0.5],[1,0.5]];portConstraint=eastwest;swimlaneFillColor=#edf5ff;strokeOpacity=100;fillOpacity=100;whiteSpace=wrap;overflow=block;blockSpacing=1;html=1;fontSize=13;" parent="eTPqjNfUhPoHLtcQSdr4-3" vertex="1">
          <mxGeometry y="277" width="555" height="46" as="geometry" />
        </mxCell>
        <mxCell id="eTPqjNfUhPoHLtcQSdr4-7" value="InstapaySystem" style="html=1;overflow=block;blockSpacing=1;swimlane;childLayout=stackLayout;horizontal=1;horizontalStack=0;resizeParent=1;resizeParentMax=0;resizeLast=0;collapsible=0;fontStyle=0;marginBottom=0;swimlaneFillColor=#edf5ff;startSize=28;whiteSpace=wrap;fontSize=16.7;fontColor=#3a414a;align=center;spacing=0;strokeColor=#3a414a;strokeOpacity=100;fillOpacity=100;rounded=1;absoluteArcSize=1;arcSize=9;fillColor=#edf5ff;strokeWidth=1.5;" parent="1" vertex="1">
          <mxGeometry x="2106" y="-549" width="375" height="205.5" as="geometry" />
        </mxCell>
        <mxCell id="eTPqjNfUhPoHLtcQSdr4-8" value="&lt;div style=&quot;display: flex; justify-content: null; text-align: null; align-items: baseline; font-size: 0; line-height: 1.25;margin-top: -2px;&quot;&gt;&lt;span&gt;&lt;span style=&quot;font-size:16.7px;color:#3a414a;&quot;&gt;- User: user&lt;br&gt;&lt;/span&gt;&lt;/span&gt;&lt;/div&gt;&lt;div style=&quot;display: flex; justify-content: null; text-align: null; align-items: baseline; font-size: 0; line-height: 1.25;margin-top: -2px;&quot;&gt;&lt;span&gt;&lt;span style=&quot;font-size:16.7px;color:#3a414a;&quot;&gt;- db: DB&lt;br&gt;- billfac: BillFactory&lt;br&gt;- payBill: PayBill&lt;/span&gt;&lt;/span&gt;&lt;/div&gt;" style="part=1;html=1;resizeHeight=0;strokeColor=none;fillColor=none;align=left;verticalAlign=middle;spacingLeft=4;spacingRight=4;overflow=hidden;rotatable=0;points=[[0,0.5],[1,0.5]];portConstraint=eastwest;swimlaneFillColor=#edf5ff;strokeOpacity=100;fillOpacity=100;whiteSpace=wrap;fontSize=16.7;fontColor=#3a414a;" parent="eTPqjNfUhPoHLtcQSdr4-7" vertex="1">
          <mxGeometry y="28" width="375" height="86" as="geometry" />
        </mxCell>
        <mxCell id="eTPqjNfUhPoHLtcQSdr4-9" value="" style="line;strokeWidth=1;fillColor=none;align=left;verticalAlign=middle;spacingTop=-1;spacingLeft=3;spacingRight=3;rotatable=0;labelPosition=right;points=[];portConstraint=eastwest;" parent="eTPqjNfUhPoHLtcQSdr4-7" vertex="1">
          <mxGeometry y="114" width="375" height="8" as="geometry" />
        </mxCell>
        <mxCell id="eTPqjNfUhPoHLtcQSdr4-10" value="&lt;div style=&quot;display: flex; justify-content: null; text-align: null; align-items: baseline; font-size: 0; line-height: 1.25;margin-top: -2px;&quot;&gt;&lt;span&gt;&lt;span style=&quot;font-size:16.7px;color:#3a414a;&quot;&gt;+ DisplayScreen(): void&#xa;&lt;/span&gt;&lt;/span&gt;&lt;/div&gt;&lt;div style=&quot;display: flex; justify-content: null; text-align: null; align-items: baseline; font-size: 0; line-height: 1.25;margin-top: -2px;&quot;&gt;&lt;span&gt;&lt;span style=&quot;font-size:16.7px;color:#3a414a;&quot;&gt;+ DisplayProfile(user: User): void&#xa;&lt;/span&gt;&lt;/span&gt;&lt;/div&gt;&lt;div style=&quot;display: flex; justify-content: null; text-align: null; align-items: baseline; font-size: 0; line-height: 1.25;margin-top: -2px;&quot;&gt;&lt;span&gt;&lt;span style=&quot;font-size:16.7px;color:#3a414a;&quot;&gt;&#xa;&lt;/span&gt;&lt;/span&gt;&lt;/div&gt;&lt;div style=&quot;display: flex; justify-content: null; text-align: null; align-items: baseline; font-size: 0; line-height: 1.25;margin-top: -2px;&quot;&gt;&lt;span&gt;&lt;/span&gt;&lt;/div&gt;" style="part=1;resizeHeight=0;strokeColor=none;fillColor=none;align=left;verticalAlign=middle;spacingLeft=4;spacingRight=4;rotatable=0;points=[[0,0.5],[1,0.5]];portConstraint=eastwest;swimlaneFillColor=#edf5ff;strokeOpacity=100;fillOpacity=100;whiteSpace=wrap;overflow=block;blockSpacing=1;html=1;fontSize=13;" parent="eTPqjNfUhPoHLtcQSdr4-7" vertex="1">
          <mxGeometry y="122" width="375" height="83.5" as="geometry" />
        </mxCell>
        <mxCell id="eTPqjNfUhPoHLtcQSdr4-11" value="OTP" style="html=1;overflow=block;blockSpacing=1;swimlane;childLayout=stackLayout;horizontal=1;horizontalStack=0;resizeParent=1;resizeParentMax=0;resizeLast=0;collapsible=0;fontStyle=0;marginBottom=0;swimlaneFillColor=#edf5ff;startSize=28;whiteSpace=wrap;fontSize=16.7;fontColor=#3a414a;align=center;spacing=0;strokeColor=#3a414a;strokeOpacity=100;fillOpacity=100;rounded=1;absoluteArcSize=1;arcSize=9;fillColor=#edf5ff;strokeWidth=1.5;" parent="1" vertex="1">
          <mxGeometry x="2314.1" y="1135" width="375" height="160.25" as="geometry" />
        </mxCell>
        <mxCell id="eTPqjNfUhPoHLtcQSdr4-12" value="&lt;div style=&quot;display: flex; justify-content: null; text-align: null; align-items: baseline; font-size: 0; line-height: 1.25;margin-top: -2px;&quot;&gt;&lt;span&gt;&lt;span style=&quot;font-size:16.7px;color:#3a414a;&quot;&gt;- mobileNo: String&#xa;&lt;/span&gt;&lt;/span&gt;&lt;/div&gt;&lt;div style=&quot;display: flex; justify-content: null; text-align: null; align-items: baseline; font-size: 0; line-height: 1.25;margin-top: -2px;&quot;&gt;&lt;span&gt;&lt;span style=&quot;font-size:16.7px;color:#3a414a;&quot;&gt;- Duration: int&lt;/span&gt;&lt;/span&gt;&lt;/div&gt;" style="part=1;html=1;resizeHeight=0;strokeColor=none;fillColor=none;align=left;verticalAlign=middle;spacingLeft=4;spacingRight=4;overflow=hidden;rotatable=0;points=[[0,0.5],[1,0.5]];portConstraint=eastwest;swimlaneFillColor=#edf5ff;strokeOpacity=100;fillOpacity=100;whiteSpace=wrap;fontSize=16.7;fontColor=#3a414a;" parent="eTPqjNfUhPoHLtcQSdr4-11" vertex="1">
          <mxGeometry y="28" width="375" height="59" as="geometry" />
        </mxCell>
        <mxCell id="eTPqjNfUhPoHLtcQSdr4-13" value="" style="line;strokeWidth=1;fillColor=none;align=left;verticalAlign=middle;spacingTop=-1;spacingLeft=3;spacingRight=3;rotatable=0;labelPosition=right;points=[];portConstraint=eastwest;" parent="eTPqjNfUhPoHLtcQSdr4-11" vertex="1">
          <mxGeometry y="87" width="375" height="8" as="geometry" />
        </mxCell>
        <mxCell id="eTPqjNfUhPoHLtcQSdr4-14" value="" style="part=1;resizeHeight=0;strokeColor=none;fillColor=none;align=left;verticalAlign=middle;spacingLeft=4;spacingRight=4;rotatable=0;points=[[0,0.5],[1,0.5]];portConstraint=eastwest;swimlaneFillColor=#edf5ff;strokeOpacity=100;fillOpacity=100;whiteSpace=wrap;overflow=block;blockSpacing=1;html=1;fontSize=13;" parent="eTPqjNfUhPoHLtcQSdr4-11" vertex="1">
          <mxGeometry y="95" width="375" height="65.25" as="geometry" />
        </mxCell>
        <mxCell id="eTPqjNfUhPoHLtcQSdr4-29" value="Bill" style="html=1;overflow=block;blockSpacing=1;swimlane;childLayout=stackLayout;horizontal=1;horizontalStack=0;resizeParent=1;resizeParentMax=0;resizeLast=0;collapsible=0;marginBottom=0;swimlaneFillColor=#edf5ff;startSize=28;whiteSpace=wrap;fontSize=16.7;fontColor=#3a414a;fontStyle=2;align=center;spacing=0;strokeColor=#3a414a;strokeOpacity=100;fillOpacity=100;rounded=1;absoluteArcSize=1;arcSize=9;fillColor=#edf5ff;strokeWidth=1.5;" parent="1" vertex="1">
          <mxGeometry x="-1477" y="80" width="270" height="260" as="geometry" />
        </mxCell>
        <mxCell id="eTPqjNfUhPoHLtcQSdr4-30" value="&lt;div style=&quot;display: flex; justify-content: null; text-align: null; align-items: baseline; font-size: 0; line-height: 1.25;margin-top: -2px;&quot;&gt;&lt;span&gt;&lt;span style=&quot;font-size:16.7px;color:#3a414a;&quot;&gt;- BillID: int &lt;br&gt;&lt;/span&gt;&lt;/span&gt;&lt;/div&gt;&lt;div style=&quot;display: flex; justify-content: null; text-align: null; align-items: baseline; font-size: 0; line-height: 1.25;margin-top: -2px;&quot;&gt;&lt;span&gt;&lt;span style=&quot;font-size:16.7px;color:#3a414a;&quot;&gt;- ElecronicPaymentNo: Int&lt;br&gt;&lt;/span&gt;&lt;/span&gt;&lt;/div&gt;&lt;div style=&quot;display: flex; justify-content: null; text-align: null; align-items: baseline; font-size: 0; line-height: 1.25;margin-top: -2px;&quot;&gt;&lt;span&gt;&lt;span style=&quot;font-size:16.7px;color:#3a414a;&quot;&gt;- BillExpenses: double&lt;br&gt;- CompanyName: String&amp;nbsp;&lt;/span&gt;- companyName: Water&lt;/span&gt;&lt;/div&gt;&lt;div style=&quot;display: flex; justify-content: null; text-align: null; align-items: baseline; font-size: 0; line-height: 1.25;margin-top: -2px;&quot;&gt;&lt;span&gt;&lt;/span&gt;&lt;/div&gt;" style="part=1;html=1;resizeHeight=0;strokeColor=none;fillColor=none;align=left;verticalAlign=middle;spacingLeft=4;spacingRight=4;overflow=hidden;rotatable=0;points=[[0,0.5],[1,0.5]];portConstraint=eastwest;swimlaneFillColor=#edf5ff;strokeOpacity=100;fillOpacity=100;whiteSpace=wrap;fontSize=16.7;fontColor=#3a414a;" parent="eTPqjNfUhPoHLtcQSdr4-29" vertex="1">
          <mxGeometry y="28" width="270" height="124" as="geometry" />
        </mxCell>
        <mxCell id="eTPqjNfUhPoHLtcQSdr4-31" value="" style="line;strokeWidth=1;fillColor=none;align=left;verticalAlign=middle;spacingTop=-1;spacingLeft=3;spacingRight=3;rotatable=0;labelPosition=right;points=[];portConstraint=eastwest;" parent="eTPqjNfUhPoHLtcQSdr4-29" vertex="1">
          <mxGeometry y="152" width="270" height="8" as="geometry" />
        </mxCell>
        <mxCell id="eTPqjNfUhPoHLtcQSdr4-32" value="&lt;div style=&quot;display: flex; justify-content: null; text-align: null; align-items: baseline; font-size: 0; line-height: 1.25;margin-top: -2px;&quot;&gt;&lt;span&gt;&lt;span style=&quot;font-size:16.7px;color:#3a414a;font-style: italic;&quot;&gt;+ DisplayBill(): String&lt;br&gt;&lt;/span&gt;&lt;/span&gt;&lt;/div&gt;&lt;div style=&quot;display: flex; justify-content: null; text-align: null; align-items: baseline; font-size: 0; line-height: 1.25;margin-top: -2px;&quot;&gt;&lt;span&gt;&lt;br&gt;&lt;/span&gt;&lt;/div&gt;" style="part=1;resizeHeight=0;strokeColor=none;fillColor=none;align=left;verticalAlign=middle;spacingLeft=4;spacingRight=4;rotatable=0;points=[[0,0.5],[1,0.5]];portConstraint=eastwest;swimlaneFillColor=#edf5ff;strokeOpacity=100;fillOpacity=100;whiteSpace=wrap;overflow=block;blockSpacing=1;html=1;fontSize=13;" parent="eTPqjNfUhPoHLtcQSdr4-29" vertex="1">
          <mxGeometry y="160" width="270" height="100" as="geometry" />
        </mxCell>
        <mxCell id="eTPqjNfUhPoHLtcQSdr4-33" value="BanK API" style="html=1;overflow=block;blockSpacing=1;swimlane;childLayout=stackLayout;horizontal=1;horizontalStack=0;resizeParent=1;resizeParentMax=0;resizeLast=0;collapsible=0;fontStyle=0;marginBottom=0;swimlaneFillColor=#edf5ff;startSize=28;whiteSpace=wrap;fontSize=16.7;fontColor=#3a414a;align=center;spacing=0;strokeColor=#3a414a;strokeOpacity=100;fillOpacity=100;rounded=1;absoluteArcSize=1;arcSize=9;fillColor=#edf5ff;strokeWidth=1.5;" parent="1" vertex="1">
          <mxGeometry x="2579.6" y="188" width="363" height="194.25" as="geometry" />
        </mxCell>
        <mxCell id="eTPqjNfUhPoHLtcQSdr4-34" value="&lt;div style=&quot;display: flex; justify-content: null; text-align: null; align-items: baseline; font-size: 0; line-height: 1.25;margin-top: -2px;&quot;&gt;&lt;span&gt;&lt;span style=&quot;font-size:16.7px;color:#3a414a;&quot;&gt;- IsVerified(): bool&lt;br&gt;&lt;/span&gt;&lt;/span&gt;&lt;/div&gt;&lt;div style=&quot;display: flex; justify-content: null; text-align: null; align-items: baseline; font-size: 0; line-height: 1.25;margin-top: -2px;&quot;&gt;&lt;span&gt;&lt;span style=&quot;font-size:16.7px;color:#3a414a;&quot;&gt;- Buser: BankUser&lt;/span&gt;&lt;/span&gt;&lt;span&gt;&lt;span style=&quot;font-size:16.7px;color:#3a414a;&quot;&gt;&lt;br&gt;&lt;/span&gt;&lt;/span&gt;&lt;span&gt;&lt;span style=&quot;font-size:16.7px;color:#3a414a;&quot;&gt;&lt;br&gt;&lt;/span&gt;&lt;/span&gt;&lt;span&gt;&lt;span style=&quot;font-size:16.7px;color:#3a414a;&quot;&gt;&lt;br&gt;&lt;/span&gt;&lt;/span&gt;&lt;span&gt;&lt;span style=&quot;font-size:16.7px;color:#3a414a;&quot;&gt;&lt;br&gt;&lt;/span&gt;&lt;/span&gt;&lt;span&gt;&lt;span style=&quot;font-size:16.7px;color:#3a414a;&quot;&gt;&lt;br&gt;&lt;/span&gt;&lt;/span&gt;&lt;span&gt;&lt;span style=&quot;font-size:16.7px;color:#3a414a;&quot;&gt;&lt;br&gt;&lt;/span&gt;&lt;/span&gt;&lt;span&gt;&lt;span style=&quot;font-size:16.7px;color:#3a414a;&quot;&gt;&lt;br&gt;&lt;/span&gt;&lt;/span&gt;&lt;span&gt;&lt;span style=&quot;font-size:16.7px;color:#3a414a;&quot;&gt;&lt;br&gt;&lt;/span&gt;&lt;/span&gt;&lt;span&gt;&lt;span style=&quot;font-size:16.7px;color:#3a414a;&quot;&gt;&lt;br&gt;&lt;/span&gt;&lt;/span&gt;&lt;span&gt;&lt;span style=&quot;font-size:16.7px;color:#3a414a;&quot;&gt;&lt;br&gt;&lt;/span&gt;&lt;/span&gt;&lt;span&gt;&lt;span style=&quot;font-size:16.7px;color:#3a414a;&quot;&gt;&lt;br&gt;&lt;/span&gt;&lt;/span&gt;&lt;span&gt;&lt;span style=&quot;font-size:16.7px;color:#3a414a;&quot;&gt;&lt;br&gt;&lt;/span&gt;&lt;/span&gt;&lt;span&gt;&lt;span style=&quot;font-size:16.7px;color:#3a414a;&quot;&gt;&lt;br&gt;&lt;/span&gt;&lt;/span&gt;&lt;span&gt;&lt;span style=&quot;font-size:16.7px;color:#3a414a;&quot;&gt;&lt;br&gt;&lt;/span&gt;&lt;/span&gt;&lt;span&gt;&lt;span style=&quot;font-size:16.7px;color:#3a414a;&quot;&gt;&lt;br&gt;&lt;/span&gt;&lt;/span&gt;&lt;span&gt;&lt;span style=&quot;font-size:16.7px;color:#3a414a;&quot;&gt;&lt;br&gt;&lt;/span&gt;&lt;/span&gt;&lt;span&gt;&lt;span style=&quot;font-size:16.7px;color:#3a414a;&quot;&gt;&lt;br&gt;&lt;/span&gt;&lt;/span&gt;&lt;span&gt;&lt;span style=&quot;font-size:16.7px;color:#3a414a;&quot;&gt;&lt;br&gt;&lt;/span&gt;&lt;/span&gt;&lt;/div&gt;" style="part=1;html=1;resizeHeight=0;strokeColor=none;fillColor=none;align=left;verticalAlign=middle;spacingLeft=4;spacingRight=4;overflow=hidden;rotatable=0;points=[[0,0.5],[1,0.5]];portConstraint=eastwest;swimlaneFillColor=#edf5ff;strokeOpacity=100;fillOpacity=100;whiteSpace=wrap;fontSize=16.7;fontColor=#3a414a;" parent="eTPqjNfUhPoHLtcQSdr4-33" vertex="1">
          <mxGeometry y="28" width="363" height="41" as="geometry" />
        </mxCell>
        <mxCell id="eTPqjNfUhPoHLtcQSdr4-197" value="&lt;font style=&quot;font-size: 17px;&quot;&gt;- Balance: double&lt;/font&gt;" style="text;html=1;strokeColor=none;fillColor=none;align=left;verticalAlign=middle;whiteSpace=wrap;rounded=0;" parent="eTPqjNfUhPoHLtcQSdr4-33" vertex="1">
          <mxGeometry y="69" width="363" height="30" as="geometry" />
        </mxCell>
        <mxCell id="eTPqjNfUhPoHLtcQSdr4-35" value="" style="line;strokeWidth=1;fillColor=none;align=left;verticalAlign=middle;spacingTop=-1;spacingLeft=3;spacingRight=3;rotatable=0;labelPosition=right;points=[];portConstraint=eastwest;" parent="eTPqjNfUhPoHLtcQSdr4-33" vertex="1">
          <mxGeometry y="99" width="363" height="8" as="geometry" />
        </mxCell>
        <mxCell id="eTPqjNfUhPoHLtcQSdr4-36" value="" style="part=1;resizeHeight=0;strokeColor=none;fillColor=none;align=left;verticalAlign=middle;spacingLeft=4;spacingRight=4;rotatable=0;points=[[0,0.5],[1,0.5]];portConstraint=eastwest;swimlaneFillColor=#edf5ff;strokeOpacity=100;fillOpacity=100;whiteSpace=wrap;overflow=block;blockSpacing=1;html=1;fontSize=13;" parent="eTPqjNfUhPoHLtcQSdr4-33" vertex="1">
          <mxGeometry y="107" width="363" height="87.25" as="geometry" />
        </mxCell>
        <mxCell id="eTPqjNfUhPoHLtcQSdr4-49" value="" style="html=1;jettySize=18;whiteSpace=wrap;fontSize=13;strokeColor=#3a414a;strokeOpacity=100;dashed=1;fixDash=1;strokeWidth=0.8;rounded=1;arcSize=24;edgeStyle=orthogonalEdgeStyle;startArrow=none;endArrow=open;exitX=-0.002;exitY=0.259;exitPerimeter=0;entryX=1;entryY=0.25;lucidId=IZXLPXXNEyKl;entryDx=0;entryDy=0;" parent="1" source="eTPqjNfUhPoHLtcQSdr4-33" target="eTPqjNfUhPoHLtcQSdr4-227" edge="1">
          <mxGeometry width="100" height="100" relative="1" as="geometry">
            <Array as="points" />
            <mxPoint x="2236.73" y="582" as="targetPoint" />
          </mxGeometry>
        </mxCell>
        <mxCell id="eTPqjNfUhPoHLtcQSdr4-50" value="Implment" style="text;html=1;resizable=0;labelBackgroundColor=default;align=center;verticalAlign=middle;fontColor=#333333;fontSize=13.3;" parent="eTPqjNfUhPoHLtcQSdr4-49" vertex="1">
          <mxGeometry relative="1" as="geometry" />
        </mxCell>
        <mxCell id="eTPqjNfUhPoHLtcQSdr4-51" value="" style="html=1;jettySize=18;whiteSpace=wrap;fontSize=13;strokeColor=#333333;strokeOpacity=100;strokeWidth=0.8;rounded=1;arcSize=24;edgeStyle=orthogonalEdgeStyle;startArrow=none;endArrow=block;endFill=1;lucidId=t0XLg~yR4Gcj;exitX=1;exitY=0.5;exitDx=0;exitDy=0;entryX=0;entryY=0;entryDx=0;entryDy=0;" parent="1" source="eTPqjNfUhPoHLtcQSdr4-60" target="eTPqjNfUhPoHLtcQSdr4-228" edge="1">
          <mxGeometry width="100" height="100" relative="1" as="geometry">
            <Array as="points">
              <mxPoint x="1445" y="295" />
            </Array>
            <mxPoint x="2250" y="1087" as="targetPoint" />
            <mxPoint x="1712" y="1160.0000000000005" as="sourcePoint" />
          </mxGeometry>
        </mxCell>
        <mxCell id="eTPqjNfUhPoHLtcQSdr4-52" value="1" style="text;html=1;resizable=0;labelBackgroundColor=default;align=center;verticalAlign=middle;fontColor=#333333;fontSize=21.8;" parent="eTPqjNfUhPoHLtcQSdr4-51" vertex="1">
          <mxGeometry x="0.9126016260162606" relative="1" as="geometry">
            <mxPoint x="-12" y="-14" as="offset" />
          </mxGeometry>
        </mxCell>
        <mxCell id="eTPqjNfUhPoHLtcQSdr4-55" value="" style="html=1;jettySize=18;whiteSpace=wrap;fontSize=13;strokeColor=#3a414a;strokeOpacity=100;dashed=1;fixDash=1;strokeWidth=0.8;rounded=1;arcSize=24;edgeStyle=orthogonalEdgeStyle;startArrow=none;endArrow=open;lucidId=M9XLrTNrml9W;entryX=1;entryY=0.5;entryDx=0;entryDy=0;" parent="1" target="eTPqjNfUhPoHLtcQSdr4-234" edge="1">
          <mxGeometry width="100" height="100" relative="1" as="geometry">
            <Array as="points">
              <mxPoint x="2499.1" y="955" />
            </Array>
            <mxPoint x="2499.1" y="1134" as="sourcePoint" />
            <mxPoint x="2244.5100000000007" y="1003.248" as="targetPoint" />
          </mxGeometry>
        </mxCell>
        <mxCell id="eTPqjNfUhPoHLtcQSdr4-56" value="Implment" style="text;html=1;resizable=0;labelBackgroundColor=default;align=center;verticalAlign=middle;fontColor=#333333;fontSize=13.3;" parent="eTPqjNfUhPoHLtcQSdr4-55" vertex="1">
          <mxGeometry relative="1" as="geometry" />
        </mxCell>
        <mxCell id="hYVjwCgE5RL3LCAW0c2I-60" style="edgeStyle=orthogonalEdgeStyle;rounded=0;orthogonalLoop=1;jettySize=auto;html=1;exitX=1;exitY=0;exitDx=0;exitDy=0;" parent="1" source="eTPqjNfUhPoHLtcQSdr4-57" target="eTPqjNfUhPoHLtcQSdr4-10" edge="1">
          <mxGeometry relative="1" as="geometry">
            <mxPoint x="2121.285609654018" y="-318.71435546875" as="targetPoint" />
            <Array as="points">
              <mxPoint x="1445" y="95" />
              <mxPoint x="2121" y="95" />
            </Array>
          </mxGeometry>
        </mxCell>
        <mxCell id="eTPqjNfUhPoHLtcQSdr4-57" value="Sign Up" style="html=1;overflow=block;blockSpacing=1;swimlane;childLayout=stackLayout;horizontal=1;horizontalStack=0;resizeParent=1;resizeParentMax=0;resizeLast=0;collapsible=0;fontStyle=0;marginBottom=0;swimlaneFillColor=#edf5ff;startSize=28;whiteSpace=wrap;fontSize=16.7;fontColor=#3a414a;align=center;spacing=0;strokeColor=#3a414a;strokeOpacity=100;fillOpacity=100;rounded=1;absoluteArcSize=1;arcSize=9;fillColor=#edf5ff;strokeWidth=1.5;" parent="1" vertex="1">
          <mxGeometry x="1100" y="71" width="375" height="287.1287191049446" as="geometry" />
        </mxCell>
        <mxCell id="eTPqjNfUhPoHLtcQSdr4-58" value="&lt;div style=&quot;display: flex; justify-content: null; text-align: null; align-items: baseline; font-size: 0; line-height: 1.25;margin-top: -2px;&quot;&gt;&lt;span&gt;&lt;span style=&quot;font-size:16.7px;color:#3a414a;&quot;&gt;- APICheck :  &lt;/span&gt;&lt;span style=&quot;font-size:16.7px;color:#3a414a;&quot;&gt;CheckAPI&lt;br&gt;&lt;/span&gt;&lt;/span&gt;&lt;/div&gt;&lt;div style=&quot;display: flex; justify-content: null; text-align: null; align-items: baseline; font-size: 0; line-height: 1.25;margin-top: -2px;&quot;&gt;&lt;span&gt;&lt;span style=&quot;font-size:16.7px;color:#3a414a;&quot;&gt;&lt;span style=&quot;font-size:16.7px;color:#3a414a;&quot;&gt;- OTPOperation: IOTP&lt;br&gt;- control: Control&amp;nbsp;&lt;/span&gt;&lt;/span&gt;- control: Control&amp;nbsp;&lt;span style=&quot;background-color: initial;&quot;&gt;- control: Control&amp;nbsp;&lt;/span&gt;&lt;/span&gt;&lt;/div&gt;" style="part=1;html=1;resizeHeight=0;strokeColor=none;fillColor=none;align=left;verticalAlign=middle;spacingLeft=4;spacingRight=4;overflow=hidden;rotatable=0;points=[[0,0.5],[1,0.5]];portConstraint=eastwest;swimlaneFillColor=#edf5ff;strokeOpacity=100;fillOpacity=100;whiteSpace=wrap;fontSize=16.7;fontColor=#3a414a;" parent="eTPqjNfUhPoHLtcQSdr4-57" vertex="1">
          <mxGeometry y="28" width="375" height="106" as="geometry" />
        </mxCell>
        <mxCell id="eTPqjNfUhPoHLtcQSdr4-59" value="" style="line;strokeWidth=1;fillColor=none;align=left;verticalAlign=middle;spacingTop=-1;spacingLeft=3;spacingRight=3;rotatable=0;labelPosition=right;points=[];portConstraint=eastwest;" parent="eTPqjNfUhPoHLtcQSdr4-57" vertex="1">
          <mxGeometry y="134" width="375" height="8" as="geometry" />
        </mxCell>
        <mxCell id="eTPqjNfUhPoHLtcQSdr4-60" value="&lt;div style=&quot;display: flex; justify-content: null; text-align: null; align-items: baseline; font-size: 0; line-height: 1.25;margin-top: -2px;&quot;&gt;&lt;span&gt;&lt;span style=&quot;font-size:16.7px;color:#3a414a;&quot;&gt;+ MakeSignup(user: User): bool&lt;br&gt;&lt;/span&gt;&lt;/span&gt;&lt;/div&gt;&lt;div style=&quot;display: flex; justify-content: null; text-align: null; align-items: baseline; font-size: 0; line-height: 1.25;margin-top: -2px;&quot;&gt;&lt;span&gt;&lt;span style=&quot;font-size:16.7px;color:#3a414a;&quot;&gt;+ IsPasswordStrong(Pass: String): bool&lt;/span&gt;&lt;/span&gt;&lt;/div&gt;&lt;div style=&quot;display: flex; justify-content: null; text-align: null; align-items: baseline; font-size: 0; line-height: 1.25;margin-top: -2px;&quot;&gt;&lt;span&gt;&lt;/span&gt;&lt;/div&gt;" style="part=1;resizeHeight=0;strokeColor=none;fillColor=none;align=left;verticalAlign=middle;spacingLeft=4;spacingRight=4;rotatable=0;points=[[0,0.5],[1,0.5]];portConstraint=eastwest;swimlaneFillColor=#edf5ff;strokeOpacity=100;fillOpacity=100;whiteSpace=wrap;overflow=block;blockSpacing=1;html=1;fontSize=13;" parent="eTPqjNfUhPoHLtcQSdr4-57" vertex="1">
          <mxGeometry y="142" width="375" height="145.12871910494457" as="geometry" />
        </mxCell>
        <mxCell id="eTPqjNfUhPoHLtcQSdr4-66" value="TransferToBank" style="html=1;overflow=block;blockSpacing=1;swimlane;childLayout=stackLayout;horizontal=1;horizontalStack=0;resizeParent=1;resizeParentMax=0;resizeLast=0;collapsible=0;fontStyle=0;marginBottom=0;swimlaneFillColor=#edf5ff;startSize=28;whiteSpace=wrap;fontSize=16.7;fontColor=#3a414a;align=center;spacing=0;strokeColor=#3a414a;strokeOpacity=100;fillOpacity=100;rounded=1;absoluteArcSize=1;arcSize=9;fillColor=#edf5ff;strokeWidth=1.5;" parent="1" vertex="1">
          <mxGeometry x="-1022" y="-125" width="420" height="147.5" as="geometry" />
        </mxCell>
        <mxCell id="eTPqjNfUhPoHLtcQSdr4-67" value="" style="part=1;html=1;resizeHeight=0;strokeColor=none;fillColor=none;align=left;verticalAlign=middle;spacingLeft=4;spacingRight=4;overflow=hidden;rotatable=0;points=[[0,0.5],[1,0.5]];portConstraint=eastwest;swimlaneFillColor=#edf5ff;strokeOpacity=100;fillOpacity=100;whiteSpace=wrap;fontSize=13;" parent="eTPqjNfUhPoHLtcQSdr4-66" vertex="1">
          <mxGeometry y="28" width="420" height="56" as="geometry" />
        </mxCell>
        <mxCell id="eTPqjNfUhPoHLtcQSdr4-68" value="" style="line;strokeWidth=1;fillColor=none;align=left;verticalAlign=middle;spacingTop=-1;spacingLeft=3;spacingRight=3;rotatable=0;labelPosition=right;points=[];portConstraint=eastwest;" parent="eTPqjNfUhPoHLtcQSdr4-66" vertex="1">
          <mxGeometry y="84" width="420" height="8" as="geometry" />
        </mxCell>
        <mxCell id="eTPqjNfUhPoHLtcQSdr4-69" value="+Transfer(amount : double, BanktUser receiver): bool" style="part=1;html=1;resizeHeight=0;strokeColor=none;fillColor=none;align=left;verticalAlign=middle;spacingLeft=4;spacingRight=4;overflow=hidden;rotatable=0;points=[[0,0.5],[1,0.5]];portConstraint=eastwest;swimlaneFillColor=#edf5ff;strokeOpacity=100;fillOpacity=100;whiteSpace=wrap;fontSize=16.7;fontColor=#3a414a;" parent="eTPqjNfUhPoHLtcQSdr4-66" vertex="1">
          <mxGeometry y="92" width="420" height="55.5" as="geometry" />
        </mxCell>
        <mxCell id="eTPqjNfUhPoHLtcQSdr4-70" value="TransferToWallet" style="html=1;overflow=block;blockSpacing=1;swimlane;childLayout=stackLayout;horizontal=1;horizontalStack=0;resizeParent=1;resizeParentMax=0;resizeLast=0;collapsible=0;fontStyle=0;marginBottom=0;swimlaneFillColor=#edf5ff;startSize=28;whiteSpace=wrap;fontSize=16.7;fontColor=#3a414a;align=center;spacing=0;strokeColor=#3a414a;strokeOpacity=100;fillOpacity=100;rounded=1;absoluteArcSize=1;arcSize=9;fillColor=#edf5ff;strokeWidth=1.5;" parent="1" vertex="1">
          <mxGeometry x="-557" y="-123" width="420" height="163" as="geometry" />
        </mxCell>
        <mxCell id="eTPqjNfUhPoHLtcQSdr4-71" value="" style="part=1;html=1;resizeHeight=0;strokeColor=none;fillColor=none;align=left;verticalAlign=middle;spacingLeft=4;spacingRight=4;overflow=hidden;rotatable=0;points=[[0,0.5],[1,0.5]];portConstraint=eastwest;swimlaneFillColor=#edf5ff;strokeOpacity=100;fillOpacity=100;whiteSpace=wrap;fontSize=13;" parent="eTPqjNfUhPoHLtcQSdr4-70" vertex="1">
          <mxGeometry y="28" width="420" height="56" as="geometry" />
        </mxCell>
        <mxCell id="eTPqjNfUhPoHLtcQSdr4-72" value="" style="line;strokeWidth=1;fillColor=none;align=left;verticalAlign=middle;spacingTop=-1;spacingLeft=3;spacingRight=3;rotatable=0;labelPosition=right;points=[];portConstraint=eastwest;" parent="eTPqjNfUhPoHLtcQSdr4-70" vertex="1">
          <mxGeometry y="84" width="420" height="8" as="geometry" />
        </mxCell>
        <mxCell id="eTPqjNfUhPoHLtcQSdr4-73" value="+Transfer(amount : double, BanktUser receiver): bool&lt;br&gt;+Transfer(amount : double, WalletUser receiver): bool" style="part=1;html=1;resizeHeight=0;strokeColor=none;fillColor=none;align=left;verticalAlign=middle;spacingLeft=4;spacingRight=4;overflow=hidden;rotatable=0;points=[[0,0.5],[1,0.5]];portConstraint=eastwest;swimlaneFillColor=#edf5ff;strokeOpacity=100;fillOpacity=100;whiteSpace=wrap;fontSize=16.7;fontColor=#3a414a;" parent="eTPqjNfUhPoHLtcQSdr4-70" vertex="1">
          <mxGeometry y="92" width="420" height="71" as="geometry" />
        </mxCell>
        <mxCell id="eTPqjNfUhPoHLtcQSdr4-74" value="TransferToInstapay" style="html=1;overflow=block;blockSpacing=1;swimlane;childLayout=stackLayout;horizontal=1;horizontalStack=0;resizeParent=1;resizeParentMax=0;resizeLast=0;collapsible=0;fontStyle=0;marginBottom=0;swimlaneFillColor=#edf5ff;startSize=28;whiteSpace=wrap;fontSize=16.7;fontColor=#3a414a;align=center;spacing=0;strokeColor=#3a414a;strokeOpacity=100;fillOpacity=100;rounded=1;absoluteArcSize=1;arcSize=9;fillColor=#edf5ff;strokeWidth=1.5;" parent="1" vertex="1">
          <mxGeometry x="-1470" y="-135" width="420" height="187" as="geometry" />
        </mxCell>
        <mxCell id="eTPqjNfUhPoHLtcQSdr4-75" value="" style="part=1;html=1;resizeHeight=0;strokeColor=none;fillColor=none;align=left;verticalAlign=middle;spacingLeft=4;spacingRight=4;overflow=hidden;rotatable=0;points=[[0,0.5],[1,0.5]];portConstraint=eastwest;swimlaneFillColor=#edf5ff;strokeOpacity=100;fillOpacity=100;whiteSpace=wrap;fontSize=13;" parent="eTPqjNfUhPoHLtcQSdr4-74" vertex="1">
          <mxGeometry y="28" width="420" height="56" as="geometry" />
        </mxCell>
        <mxCell id="eTPqjNfUhPoHLtcQSdr4-76" value="" style="line;strokeWidth=1;fillColor=none;align=left;verticalAlign=middle;spacingTop=-1;spacingLeft=3;spacingRight=3;rotatable=0;labelPosition=right;points=[];portConstraint=eastwest;" parent="eTPqjNfUhPoHLtcQSdr4-74" vertex="1">
          <mxGeometry y="84" width="420" height="8" as="geometry" />
        </mxCell>
        <mxCell id="eTPqjNfUhPoHLtcQSdr4-77" value="+Transfer(amount : double, BanktUser receiver): bool&lt;br&gt;+Transfer(amount : double, WalletUser receiver): bool" style="part=1;html=1;resizeHeight=0;strokeColor=none;fillColor=none;align=left;verticalAlign=middle;spacingLeft=4;spacingRight=4;overflow=hidden;rotatable=0;points=[[0,0.5],[1,0.5]];portConstraint=eastwest;swimlaneFillColor=#edf5ff;strokeOpacity=100;fillOpacity=100;whiteSpace=wrap;fontSize=16.7;fontColor=#3a414a;" parent="eTPqjNfUhPoHLtcQSdr4-74" vertex="1">
          <mxGeometry y="92" width="420" height="95" as="geometry" />
        </mxCell>
        <mxCell id="eTPqjNfUhPoHLtcQSdr4-78" value="" style="html=1;jettySize=18;whiteSpace=wrap;fontSize=13;strokeColor=#3a414a;strokeOpacity=100;dashed=1;fixDash=1;strokeWidth=0.8;rounded=1;arcSize=24;edgeStyle=orthogonalEdgeStyle;startArrow=none;endArrow=open;exitX=0.5;exitY=-0.005;exitPerimeter=0;lucidId=ZVcMn8zuJZiY;entryX=0.75;entryY=1;entryDx=0;entryDy=0;" parent="1" source="eTPqjNfUhPoHLtcQSdr4-70" target="hYVjwCgE5RL3LCAW0c2I-33" edge="1">
          <mxGeometry width="100" height="100" relative="1" as="geometry">
            <Array as="points" />
            <mxPoint x="-542" y="-329" as="targetPoint" />
          </mxGeometry>
        </mxCell>
        <mxCell id="eTPqjNfUhPoHLtcQSdr4-79" value="Implment" style="text;html=1;resizable=0;labelBackgroundColor=default;align=center;verticalAlign=middle;fontColor=#333333;fontSize=13.3;" parent="eTPqjNfUhPoHLtcQSdr4-78" vertex="1">
          <mxGeometry relative="1" as="geometry" />
        </mxCell>
        <mxCell id="eTPqjNfUhPoHLtcQSdr4-80" value="" style="html=1;jettySize=18;whiteSpace=wrap;fontSize=13;strokeColor=#3a414a;strokeOpacity=100;dashed=1;fixDash=1;strokeWidth=0.8;rounded=1;arcSize=24;edgeStyle=orthogonalEdgeStyle;startArrow=none;endArrow=open;lucidId=-VcMxsXqmi52;entryX=0.5;entryY=1;entryDx=0;entryDy=0;" parent="1" target="hYVjwCgE5RL3LCAW0c2I-33" edge="1">
          <mxGeometry width="100" height="100" relative="1" as="geometry">
            <Array as="points">
              <mxPoint x="-792" y="-126" />
            </Array>
            <mxPoint x="-727" y="-373" as="targetPoint" />
            <mxPoint x="-792" y="-120" as="sourcePoint" />
          </mxGeometry>
        </mxCell>
        <mxCell id="eTPqjNfUhPoHLtcQSdr4-81" value="Implment" style="text;html=1;resizable=0;labelBackgroundColor=default;align=center;verticalAlign=middle;fontColor=#333333;fontSize=13.3;" parent="eTPqjNfUhPoHLtcQSdr4-80" vertex="1">
          <mxGeometry relative="1" as="geometry" />
        </mxCell>
        <mxCell id="eTPqjNfUhPoHLtcQSdr4-82" value="" style="html=1;jettySize=18;whiteSpace=wrap;fontSize=13;strokeColor=#3a414a;strokeOpacity=100;dashed=1;fixDash=1;strokeWidth=0.8;rounded=1;arcSize=24;edgeStyle=orthogonalEdgeStyle;startArrow=none;endArrow=open;exitX=0.5;exitY=-0.005;exitPerimeter=0;lucidId=lWcMawVtg3-X;" parent="1" source="eTPqjNfUhPoHLtcQSdr4-74" target="hYVjwCgE5RL3LCAW0c2I-33" edge="1">
          <mxGeometry width="100" height="100" relative="1" as="geometry">
            <Array as="points">
              <mxPoint x="-1260" y="-328" />
              <mxPoint x="-880" y="-328" />
              <mxPoint x="-880" y="-330" />
              <mxPoint x="-865" y="-330" />
            </Array>
            <mxPoint x="-870" y="-443" as="targetPoint" />
          </mxGeometry>
        </mxCell>
        <mxCell id="eTPqjNfUhPoHLtcQSdr4-83" value="Implment" style="text;html=1;resizable=0;labelBackgroundColor=default;align=center;verticalAlign=middle;fontColor=#333333;fontSize=13.3;" parent="eTPqjNfUhPoHLtcQSdr4-82" vertex="1">
          <mxGeometry relative="1" as="geometry" />
        </mxCell>
        <mxCell id="eTPqjNfUhPoHLtcQSdr4-84" value="" style="html=1;jettySize=18;whiteSpace=wrap;fontSize=13;strokeColor=#333333;strokeOpacity=100;strokeWidth=0.8;rounded=1;arcSize=24;edgeStyle=orthogonalEdgeStyle;startArrow=none;endArrow=none;endFill=0;endSize=16;exitX=1;exitY=0.96;exitPerimeter=0;lucidId=_ZcMrI6-viP3;exitDx=0;exitDy=0;" parent="1" source="hYVjwCgE5RL3LCAW0c2I-81" target="eTPqjNfUhPoHLtcQSdr4-4" edge="1">
          <mxGeometry width="100" height="100" relative="1" as="geometry">
            <Array as="points">
              <mxPoint x="-475" y="-988" />
              <mxPoint x="185" y="-988" />
              <mxPoint x="185" y="-280" />
              <mxPoint x="327" y="-280" />
              <mxPoint x="327" y="-284" />
            </Array>
            <mxPoint x="-466.9999999999999" y="-988.0000000000001" as="sourcePoint" />
            <mxPoint x="326.99000000000035" y="-285.06999999999977" as="targetPoint" />
          </mxGeometry>
        </mxCell>
        <mxCell id="eTPqjNfUhPoHLtcQSdr4-85" value="1" style="text;html=1;resizable=0;labelBackgroundColor=default;align=center;verticalAlign=middle;fontColor=#333333;fontSize=20.2;" parent="eTPqjNfUhPoHLtcQSdr4-84" vertex="1">
          <mxGeometry x="-0.8678861788617889" relative="1" as="geometry">
            <mxPoint x="-1" y="-21" as="offset" />
          </mxGeometry>
        </mxCell>
        <mxCell id="eTPqjNfUhPoHLtcQSdr4-86" value="1" style="text;html=1;resizable=0;labelBackgroundColor=default;align=center;verticalAlign=middle;fontColor=#333333;fontSize=21.8;" parent="eTPqjNfUhPoHLtcQSdr4-84" vertex="1">
          <mxGeometry x="0.9126016260162606" relative="1" as="geometry">
            <mxPoint x="2" y="-24" as="offset" />
          </mxGeometry>
        </mxCell>
        <mxCell id="eTPqjNfUhPoHLtcQSdr4-91" value="" style="html=1;jettySize=18;whiteSpace=wrap;fontSize=13;strokeColor=#333333;strokeOpacity=100;strokeWidth=0.8;rounded=1;arcSize=24;edgeStyle=orthogonalEdgeStyle;startArrow=none;endArrow=block;endFill=1;exitX=-0.002;exitY=0.02;exitPerimeter=0;lucidId=YudMt2PCOjff;" parent="1" source="eTPqjNfUhPoHLtcQSdr4-7" target="eTPqjNfUhPoHLtcQSdr4-3" edge="1">
          <mxGeometry width="100" height="100" relative="1" as="geometry">
            <Array as="points">
              <mxPoint x="1922" y="-544" />
              <mxPoint x="978" y="-544" />
              <mxPoint x="978" y="-350" />
            </Array>
          </mxGeometry>
        </mxCell>
        <mxCell id="eTPqjNfUhPoHLtcQSdr4-92" value="1" style="text;html=1;resizable=0;labelBackgroundColor=default;align=center;verticalAlign=middle;fontColor=#333333;fontSize=21.8;" parent="eTPqjNfUhPoHLtcQSdr4-91" vertex="1">
          <mxGeometry x="0.9126016260162606" relative="1" as="geometry">
            <mxPoint x="-22" y="-28" as="offset" />
          </mxGeometry>
        </mxCell>
        <mxCell id="eTPqjNfUhPoHLtcQSdr4-94" value="Sign In" style="html=1;overflow=block;blockSpacing=1;swimlane;childLayout=stackLayout;horizontal=1;horizontalStack=0;resizeParent=1;resizeParentMax=0;resizeLast=0;collapsible=0;fontStyle=0;marginBottom=0;swimlaneFillColor=#edf5ff;startSize=28;whiteSpace=wrap;fontSize=16.7;fontColor=#3a414a;align=center;spacing=0;strokeColor=#3a414a;strokeOpacity=100;fillOpacity=100;rounded=1;absoluteArcSize=1;arcSize=9;fillColor=#edf5ff;strokeWidth=1.5;" parent="1" vertex="1">
          <mxGeometry x="1092" y="-273" width="420" height="190.25" as="geometry" />
        </mxCell>
        <mxCell id="eTPqjNfUhPoHLtcQSdr4-95" value="&lt;div style=&quot;display: flex; justify-content: null; text-align: null; align-items: baseline; font-size: 0; line-height: 1.25;margin-top: -2px;&quot;&gt;&lt;span&gt;&lt;span style=&quot;font-size:16.7px;color:#3a414a;&quot;&gt;- UsernName: String&lt;br&gt;&lt;/span&gt;&lt;/span&gt;&lt;/div&gt;&lt;div style=&quot;display: flex; justify-content: null; text-align: null; align-items: baseline; font-size: 0; line-height: 1.25;margin-top: -2px;&quot;&gt;&lt;span&gt;&lt;span style=&quot;font-size:16.7px;color:#3a414a;&quot;&gt;- Password: String&lt;br&gt;- control: Control&amp;nbsp;&lt;/span&gt;&lt;/span&gt;&lt;/div&gt;" style="part=1;html=1;resizeHeight=0;strokeColor=none;fillColor=none;align=left;verticalAlign=middle;spacingLeft=4;spacingRight=4;overflow=hidden;rotatable=0;points=[[0,0.5],[1,0.5]];portConstraint=eastwest;swimlaneFillColor=#edf5ff;strokeOpacity=100;fillOpacity=100;whiteSpace=wrap;fontSize=16.7;fontColor=#3a414a;" parent="eTPqjNfUhPoHLtcQSdr4-94" vertex="1">
          <mxGeometry y="28" width="420" height="67" as="geometry" />
        </mxCell>
        <mxCell id="eTPqjNfUhPoHLtcQSdr4-96" value="" style="line;strokeWidth=1;fillColor=none;align=left;verticalAlign=middle;spacingTop=-1;spacingLeft=3;spacingRight=3;rotatable=0;labelPosition=right;points=[];portConstraint=eastwest;" parent="eTPqjNfUhPoHLtcQSdr4-94" vertex="1">
          <mxGeometry y="95" width="420" height="8" as="geometry" />
        </mxCell>
        <mxCell id="eTPqjNfUhPoHLtcQSdr4-97" value="+ Login(Username: String, Password: String): bool" style="part=1;resizeHeight=0;strokeColor=none;fillColor=none;align=left;verticalAlign=middle;spacingLeft=4;spacingRight=4;rotatable=0;points=[[0,0.5],[1,0.5]];portConstraint=eastwest;swimlaneFillColor=#edf5ff;strokeOpacity=100;fillOpacity=100;whiteSpace=wrap;overflow=block;blockSpacing=1;html=1;fontSize=13;" parent="eTPqjNfUhPoHLtcQSdr4-94" vertex="1">
          <mxGeometry y="103" width="420" height="87.25" as="geometry" />
        </mxCell>
        <mxCell id="eTPqjNfUhPoHLtcQSdr4-98" value="Gas Bill" style="html=1;overflow=block;blockSpacing=1;swimlane;childLayout=stackLayout;horizontal=1;horizontalStack=0;resizeParent=1;resizeParentMax=0;resizeLast=0;collapsible=0;fontStyle=0;marginBottom=0;swimlaneFillColor=#edf5ff;startSize=28;whiteSpace=wrap;fontSize=16.7;fontColor=#3a414a;align=center;spacing=0;strokeColor=#3a414a;strokeOpacity=100;fillOpacity=100;rounded=1;absoluteArcSize=1;arcSize=9;fillColor=#edf5ff;strokeWidth=1.5;" parent="1" vertex="1">
          <mxGeometry x="-1911" y="590.5" width="270" height="186.5" as="geometry" />
        </mxCell>
        <mxCell id="eTPqjNfUhPoHLtcQSdr4-99" value="&lt;div style=&quot;display: flex; justify-content: null; text-align: null; align-items: baseline; font-size: 0; line-height: 1.25;margin-top: -2px;&quot;&gt;&lt;span&gt;&lt;span style=&quot;font-size:16.7px;color:#3a414a;&quot;&gt;- ReadNo: int &lt;br&gt;&lt;/span&gt;&lt;/span&gt;&lt;/div&gt;&lt;div style=&quot;display: flex; justify-content: null; text-align: null; align-items: baseline; font-size: 0; line-height: 1.25;margin-top: -2px;&quot;&gt;&lt;span&gt;&lt;br&gt;&lt;/span&gt;&lt;/div&gt;" style="part=1;html=1;resizeHeight=0;strokeColor=none;fillColor=none;align=left;verticalAlign=middle;spacingLeft=4;spacingRight=4;overflow=hidden;rotatable=0;points=[[0,0.5],[1,0.5]];portConstraint=eastwest;swimlaneFillColor=#edf5ff;strokeOpacity=100;fillOpacity=100;whiteSpace=wrap;fontSize=16.7;fontColor=#3a414a;" parent="eTPqjNfUhPoHLtcQSdr4-98" vertex="1">
          <mxGeometry y="28" width="270" height="76" as="geometry" />
        </mxCell>
        <mxCell id="eTPqjNfUhPoHLtcQSdr4-100" value="" style="line;strokeWidth=1;fillColor=none;align=left;verticalAlign=middle;spacingTop=-1;spacingLeft=3;spacingRight=3;rotatable=0;labelPosition=right;points=[];portConstraint=eastwest;" parent="eTPqjNfUhPoHLtcQSdr4-98" vertex="1">
          <mxGeometry y="104" width="270" height="8" as="geometry" />
        </mxCell>
        <mxCell id="eTPqjNfUhPoHLtcQSdr4-101" value="&lt;div style=&quot;display: flex; justify-content: null; text-align: null; align-items: baseline; font-size: 0; line-height: 1.25;margin-top: -2px;&quot;&gt;&lt;span&gt;&lt;span style=&quot;font-size:16.7px;color:#3a414a;&quot;&gt;+ DisplayBill(): String&lt;br&gt;&lt;/span&gt;&lt;/span&gt;&lt;/div&gt;&lt;div style=&quot;display: flex; justify-content: null; text-align: null; align-items: baseline; font-size: 0; line-height: 1.25;margin-top: -2px;&quot;&gt;&lt;span&gt;&lt;br&gt;&lt;/span&gt;&lt;/div&gt;" style="part=1;resizeHeight=0;strokeColor=none;fillColor=none;align=left;verticalAlign=middle;spacingLeft=4;spacingRight=4;rotatable=0;points=[[0,0.5],[1,0.5]];portConstraint=eastwest;swimlaneFillColor=#edf5ff;strokeOpacity=100;fillOpacity=100;whiteSpace=wrap;overflow=block;blockSpacing=1;html=1;fontSize=13;" parent="eTPqjNfUhPoHLtcQSdr4-98" vertex="1">
          <mxGeometry y="112" width="270" height="74.5" as="geometry" />
        </mxCell>
        <mxCell id="eTPqjNfUhPoHLtcQSdr4-110" value="" style="html=1;jettySize=18;whiteSpace=wrap;fontSize=13;strokeColor=#3a414a;strokeOpacity=100;strokeWidth=0.8;rounded=1;arcSize=12;edgeStyle=orthogonalEdgeStyle;startArrow=none;endArrow=none;exitX=0.5;exitY=0;entryX=0.5;entryY=1.004;entryPerimeter=0;lucidId=sYfMzskQTNts;exitDx=0;exitDy=0;" parent="1" source="hYVjwCgE5RL3LCAW0c2I-94" target="eTPqjNfUhPoHLtcQSdr4-29" edge="1">
          <mxGeometry width="100" height="100" relative="1" as="geometry">
            <Array as="points" />
            <mxPoint x="-610" y="551.8174999999997" as="sourcePoint" />
          </mxGeometry>
        </mxCell>
        <mxCell id="eTPqjNfUhPoHLtcQSdr4-111" value="" style="html=1;jettySize=18;whiteSpace=wrap;fontSize=13;strokeColor=#3a414a;strokeOpacity=100;strokeWidth=0.8;rounded=1;arcSize=12;edgeStyle=orthogonalEdgeStyle;startArrow=none;endArrow=none;exitX=0.5;exitY=0;entryX=0.5;entryY=1.004;entryPerimeter=0;lucidId=wYfMcULYkrIY;exitDx=0;exitDy=0;" parent="1" source="hYVjwCgE5RL3LCAW0c2I-98" target="eTPqjNfUhPoHLtcQSdr4-29" edge="1">
          <mxGeometry width="100" height="100" relative="1" as="geometry">
            <Array as="points" />
            <mxPoint x="-985" y="546.9574999999995" as="sourcePoint" />
          </mxGeometry>
        </mxCell>
        <mxCell id="eTPqjNfUhPoHLtcQSdr4-112" value="" style="html=1;jettySize=18;whiteSpace=wrap;fontSize=13;strokeColor=#3a414a;strokeOpacity=100;strokeWidth=0.8;rounded=1;arcSize=12;edgeStyle=orthogonalEdgeStyle;startArrow=none;endArrow=none;exitX=0.5;exitY=-0.005;exitPerimeter=0;entryX=0.5;entryY=1.004;entryPerimeter=0;lucidId=AYfMl-P~XG~i;" parent="1" source="eTPqjNfUhPoHLtcQSdr4-98" target="eTPqjNfUhPoHLtcQSdr4-29" edge="1">
          <mxGeometry width="100" height="100" relative="1" as="geometry">
            <Array as="points" />
          </mxGeometry>
        </mxCell>
        <mxCell id="eTPqjNfUhPoHLtcQSdr4-153" value="DB Oracle" style="html=1;overflow=block;blockSpacing=1;swimlane;childLayout=stackLayout;horizontal=1;horizontalStack=0;resizeParent=1;resizeParentMax=0;resizeLast=0;collapsible=0;marginBottom=0;swimlaneFillColor=#edf5ff;startSize=28;whiteSpace=wrap;fontSize=16.7;fontColor=#3a414a;fontStyle=2;align=center;spacing=0;strokeColor=#3a414a;strokeOpacity=100;fillOpacity=100;rounded=1;absoluteArcSize=1;arcSize=9;fillColor=#edf5ff;strokeWidth=1.5;" parent="1" vertex="1">
          <mxGeometry x="2740" y="-52" width="375" height="128.5" as="geometry" />
        </mxCell>
        <mxCell id="eTPqjNfUhPoHLtcQSdr4-154" value="- Accounts: User[]" style="part=1;html=1;resizeHeight=0;strokeColor=none;fillColor=none;align=left;verticalAlign=middle;spacingLeft=4;spacingRight=4;overflow=hidden;rotatable=0;points=[[0,0.5],[1,0.5]];portConstraint=eastwest;swimlaneFillColor=#edf5ff;strokeOpacity=100;fillOpacity=100;whiteSpace=wrap;fontSize=16.7;fontColor=#3a414a;" parent="eTPqjNfUhPoHLtcQSdr4-153" vertex="1">
          <mxGeometry y="28" width="375" height="46" as="geometry" />
        </mxCell>
        <mxCell id="eTPqjNfUhPoHLtcQSdr4-155" value="" style="line;strokeWidth=1;fillColor=none;align=left;verticalAlign=middle;spacingTop=-1;spacingLeft=3;spacingRight=3;rotatable=0;labelPosition=right;points=[];portConstraint=eastwest;" parent="eTPqjNfUhPoHLtcQSdr4-153" vertex="1">
          <mxGeometry y="74" width="375" height="8" as="geometry" />
        </mxCell>
        <mxCell id="eTPqjNfUhPoHLtcQSdr4-156" value="" style="part=1;html=1;resizeHeight=0;strokeColor=none;fillColor=none;align=left;verticalAlign=middle;spacingLeft=4;spacingRight=4;overflow=hidden;rotatable=0;points=[[0,0.5],[1,0.5]];portConstraint=eastwest;swimlaneFillColor=#edf5ff;strokeOpacity=100;fillOpacity=100;whiteSpace=wrap;fontSize=13;" parent="eTPqjNfUhPoHLtcQSdr4-153" vertex="1">
          <mxGeometry y="82" width="375" height="46.5" as="geometry" />
        </mxCell>
        <mxCell id="eTPqjNfUhPoHLtcQSdr4-157" value="DB SQL" style="html=1;overflow=block;blockSpacing=1;swimlane;childLayout=stackLayout;horizontal=1;horizontalStack=0;resizeParent=1;resizeParentMax=0;resizeLast=0;collapsible=0;marginBottom=0;swimlaneFillColor=#edf5ff;startSize=28;whiteSpace=wrap;fontSize=16.7;fontColor=#3a414a;fontStyle=2;align=center;spacing=0;strokeColor=#3a414a;strokeOpacity=100;fillOpacity=100;rounded=1;absoluteArcSize=1;arcSize=9;fillColor=#edf5ff;strokeWidth=1.5;" parent="1" vertex="1">
          <mxGeometry x="3294" y="-40.5" width="375" height="128.5" as="geometry" />
        </mxCell>
        <mxCell id="eTPqjNfUhPoHLtcQSdr4-158" value="- Accounts: User []" style="part=1;html=1;resizeHeight=0;strokeColor=none;fillColor=none;align=left;verticalAlign=middle;spacingLeft=4;spacingRight=4;overflow=hidden;rotatable=0;points=[[0,0.5],[1,0.5]];portConstraint=eastwest;swimlaneFillColor=#edf5ff;strokeOpacity=100;fillOpacity=100;whiteSpace=wrap;fontSize=16.7;fontColor=#3a414a;" parent="eTPqjNfUhPoHLtcQSdr4-157" vertex="1">
          <mxGeometry y="28" width="375" height="46" as="geometry" />
        </mxCell>
        <mxCell id="eTPqjNfUhPoHLtcQSdr4-159" value="" style="line;strokeWidth=1;fillColor=none;align=left;verticalAlign=middle;spacingTop=-1;spacingLeft=3;spacingRight=3;rotatable=0;labelPosition=right;points=[];portConstraint=eastwest;" parent="eTPqjNfUhPoHLtcQSdr4-157" vertex="1">
          <mxGeometry y="74" width="375" height="8" as="geometry" />
        </mxCell>
        <mxCell id="eTPqjNfUhPoHLtcQSdr4-160" value="" style="part=1;html=1;resizeHeight=0;strokeColor=none;fillColor=none;align=left;verticalAlign=middle;spacingLeft=4;spacingRight=4;overflow=hidden;rotatable=0;points=[[0,0.5],[1,0.5]];portConstraint=eastwest;swimlaneFillColor=#edf5ff;strokeOpacity=100;fillOpacity=100;whiteSpace=wrap;fontSize=13;" parent="eTPqjNfUhPoHLtcQSdr4-157" vertex="1">
          <mxGeometry y="82" width="375" height="46.5" as="geometry" />
        </mxCell>
        <mxCell id="eTPqjNfUhPoHLtcQSdr4-161" value="" style="html=1;jettySize=18;whiteSpace=wrap;fontSize=13;strokeColor=#3a414a;strokeOpacity=100;dashed=1;fixDash=1;strokeWidth=0.8;rounded=1;arcSize=24;edgeStyle=orthogonalEdgeStyle;startArrow=none;endArrow=open;exitX=0.487;exitY=-0.006;exitPerimeter=0;entryX=0.5;entryY=1.004;entryPerimeter=0;lucidId=psgMl1geHyBB;" parent="1" source="eTPqjNfUhPoHLtcQSdr4-153" target="eTPqjNfUhPoHLtcQSdr4-149" edge="1">
          <mxGeometry width="100" height="100" relative="1" as="geometry">
            <Array as="points" />
          </mxGeometry>
        </mxCell>
        <mxCell id="eTPqjNfUhPoHLtcQSdr4-162" value="Implment" style="text;html=1;resizable=0;labelBackgroundColor=default;align=center;verticalAlign=middle;fontColor=#333333;fontSize=13.3;" parent="eTPqjNfUhPoHLtcQSdr4-161" vertex="1">
          <mxGeometry relative="1" as="geometry" />
        </mxCell>
        <mxCell id="eTPqjNfUhPoHLtcQSdr4-163" value="" style="html=1;jettySize=18;whiteSpace=wrap;fontSize=13;strokeColor=#3a414a;strokeOpacity=100;dashed=1;fixDash=1;strokeWidth=0.8;rounded=1;arcSize=24;edgeStyle=orthogonalEdgeStyle;startArrow=none;endArrow=open;exitX=0.521;exitY=-0.006;exitPerimeter=0;entryX=0.5;entryY=1.004;entryPerimeter=0;lucidId=LsgMCZ5xQaUQ;" parent="1" source="eTPqjNfUhPoHLtcQSdr4-157" target="eTPqjNfUhPoHLtcQSdr4-149" edge="1">
          <mxGeometry width="100" height="100" relative="1" as="geometry">
            <Array as="points" />
          </mxGeometry>
        </mxCell>
        <mxCell id="eTPqjNfUhPoHLtcQSdr4-164" value="Implment" style="text;html=1;resizable=0;labelBackgroundColor=default;align=center;verticalAlign=middle;fontColor=#333333;fontSize=13.3;" parent="eTPqjNfUhPoHLtcQSdr4-163" vertex="1">
          <mxGeometry relative="1" as="geometry" />
        </mxCell>
        <mxCell id="eTPqjNfUhPoHLtcQSdr4-165" value="" style="html=1;jettySize=18;whiteSpace=wrap;fontSize=13;strokeColor=#333333;strokeOpacity=100;strokeWidth=0.8;rounded=1;arcSize=24;edgeStyle=orthogonalEdgeStyle;startArrow=diamond;endArrow=none;entryX=1.007;entryY=-0.044;entryPerimeter=0;lucidId=DwgMJmMK-3vP;exitX=0.99;exitY=-0.074;exitDx=0;exitDy=0;exitPerimeter=0;entryDx=0;entryDy=0;endFill=0;startFill=1;" parent="1" source="eTPqjNfUhPoHLtcQSdr4-10" target="eTPqjNfUhPoHLtcQSdr4-152" edge="1">
          <mxGeometry width="100" height="100" relative="1" as="geometry">
            <Array as="points" />
            <mxPoint x="2402" y="-477" as="sourcePoint" />
          </mxGeometry>
        </mxCell>
        <mxCell id="eTPqjNfUhPoHLtcQSdr4-167" value="1" style="text;html=1;resizable=0;labelBackgroundColor=default;align=center;verticalAlign=middle;fontColor=#333333;fontSize=21.8;" parent="eTPqjNfUhPoHLtcQSdr4-165" vertex="1">
          <mxGeometry x="0.9126016260162606" relative="1" as="geometry">
            <mxPoint y="-17" as="offset" />
          </mxGeometry>
        </mxCell>
        <mxCell id="eTPqjNfUhPoHLtcQSdr4-171" value="Wallet API" style="html=1;overflow=block;blockSpacing=1;swimlane;childLayout=stackLayout;horizontal=1;horizontalStack=0;resizeParent=1;resizeParentMax=0;resizeLast=0;collapsible=0;fontStyle=0;marginBottom=0;swimlaneFillColor=#edf5ff;startSize=28;whiteSpace=wrap;fontSize=16.7;fontColor=#3a414a;align=center;spacing=0;strokeColor=#3a414a;strokeOpacity=100;fillOpacity=100;rounded=1;absoluteArcSize=1;arcSize=9;fillColor=#edf5ff;strokeWidth=1.5;" parent="1" vertex="1">
          <mxGeometry x="2567.6" y="744" width="375" height="196.25" as="geometry" />
        </mxCell>
        <mxCell id="eTPqjNfUhPoHLtcQSdr4-172" value="&lt;div style=&quot;display: flex; justify-content: null; text-align: null; align-items: baseline; font-size: 0; line-height: 1.25;margin-top: -2px;&quot;&gt;&lt;span&gt;&lt;span style=&quot;font-size:16.7px;color:#3a414a;&quot;&gt;- IsVerified(): bool&#xa;&lt;/span&gt;&lt;/span&gt;&lt;/div&gt;&lt;div style=&quot;display: flex; justify-content: null; text-align: null; align-items: baseline; font-size: 0; line-height: 1.25;margin-top: -2px;&quot;&gt;&lt;span&gt;&lt;span style=&quot;font-size:16.7px;color:#3a414a;&quot;&gt;- mobileNo: String&lt;/span&gt;&lt;/span&gt;&lt;/div&gt;" style="part=1;html=1;resizeHeight=0;strokeColor=none;fillColor=none;align=left;verticalAlign=middle;spacingLeft=4;spacingRight=4;overflow=hidden;rotatable=0;points=[[0,0.5],[1,0.5]];portConstraint=eastwest;swimlaneFillColor=#edf5ff;strokeOpacity=100;fillOpacity=100;whiteSpace=wrap;fontSize=16.7;fontColor=#3a414a;" parent="eTPqjNfUhPoHLtcQSdr4-171" vertex="1">
          <mxGeometry y="28" width="375" height="43" as="geometry" />
        </mxCell>
        <mxCell id="eTPqjNfUhPoHLtcQSdr4-198" value="&lt;font style=&quot;font-size: 17px;&quot;&gt;- Balance: double&lt;/font&gt;" style="text;html=1;strokeColor=none;fillColor=none;align=left;verticalAlign=middle;whiteSpace=wrap;rounded=0;" parent="eTPqjNfUhPoHLtcQSdr4-171" vertex="1">
          <mxGeometry y="71" width="375" height="30" as="geometry" />
        </mxCell>
        <mxCell id="eTPqjNfUhPoHLtcQSdr4-173" value="" style="line;strokeWidth=1;fillColor=none;align=left;verticalAlign=middle;spacingTop=-1;spacingLeft=3;spacingRight=3;rotatable=0;labelPosition=right;points=[];portConstraint=eastwest;" parent="eTPqjNfUhPoHLtcQSdr4-171" vertex="1">
          <mxGeometry y="101" width="375" height="8" as="geometry" />
        </mxCell>
        <mxCell id="eTPqjNfUhPoHLtcQSdr4-174" value="" style="part=1;resizeHeight=0;strokeColor=none;fillColor=none;align=left;verticalAlign=middle;spacingLeft=4;spacingRight=4;rotatable=0;points=[[0,0.5],[1,0.5]];portConstraint=eastwest;swimlaneFillColor=#edf5ff;strokeOpacity=100;fillOpacity=100;whiteSpace=wrap;overflow=block;blockSpacing=1;html=1;fontSize=13;" parent="eTPqjNfUhPoHLtcQSdr4-171" vertex="1">
          <mxGeometry y="109" width="375" height="87.25" as="geometry" />
        </mxCell>
        <mxCell id="eTPqjNfUhPoHLtcQSdr4-180" value="ElectroPaymentcompanies" style="html=1;overflow=block;blockSpacing=1;swimlane;childLayout=stackLayout;horizontal=1;horizontalStack=0;resizeParent=1;resizeParentMax=0;resizeLast=0;collapsible=0;fontStyle=0;marginBottom=0;swimlaneFillColor=#edf5ff;startSize=28;whiteSpace=wrap;fontSize=16.7;fontColor=#3a414a;align=center;spacing=0;strokeColor=#3a414a;strokeOpacity=100;fillOpacity=100;rounded=1;absoluteArcSize=1;arcSize=9;fillColor=#edf5ff;strokeWidth=1.5;" parent="1" vertex="1">
          <mxGeometry x="3121.1" y="810" width="285" height="229.25" as="geometry" />
        </mxCell>
        <mxCell id="eTPqjNfUhPoHLtcQSdr4-181" value="" style="part=1;html=1;resizeHeight=0;strokeColor=none;fillColor=none;align=left;verticalAlign=middle;spacingLeft=4;spacingRight=4;overflow=hidden;rotatable=0;points=[[0,0.5],[1,0.5]];portConstraint=eastwest;swimlaneFillColor=#edf5ff;strokeOpacity=100;fillOpacity=100;whiteSpace=wrap;fontSize=13;" parent="eTPqjNfUhPoHLtcQSdr4-180" vertex="1">
          <mxGeometry y="28" width="285" height="71" as="geometry" />
        </mxCell>
        <mxCell id="eTPqjNfUhPoHLtcQSdr4-182" value="" style="line;strokeWidth=1;fillColor=none;align=left;verticalAlign=middle;spacingTop=-1;spacingLeft=3;spacingRight=3;rotatable=0;labelPosition=right;points=[];portConstraint=eastwest;" parent="eTPqjNfUhPoHLtcQSdr4-180" vertex="1">
          <mxGeometry y="99" width="285" height="8" as="geometry" />
        </mxCell>
        <mxCell id="eTPqjNfUhPoHLtcQSdr4-183" value="" style="part=1;html=1;resizeHeight=0;strokeColor=none;fillColor=none;align=left;verticalAlign=middle;spacingLeft=4;spacingRight=4;overflow=hidden;rotatable=0;points=[[0,0.5],[1,0.5]];portConstraint=eastwest;swimlaneFillColor=#edf5ff;strokeOpacity=100;fillOpacity=100;whiteSpace=wrap;fontSize=13;" parent="eTPqjNfUhPoHLtcQSdr4-180" vertex="1">
          <mxGeometry y="107" width="285" height="122.25" as="geometry" />
        </mxCell>
        <mxCell id="eTPqjNfUhPoHLtcQSdr4-184" value="Banks" style="html=1;overflow=block;blockSpacing=1;swimlane;childLayout=stackLayout;horizontal=1;horizontalStack=0;resizeParent=1;resizeParentMax=0;resizeLast=0;collapsible=0;fontStyle=0;marginBottom=0;swimlaneFillColor=#edf5ff;startSize=28;whiteSpace=wrap;fontSize=16.7;fontColor=#3a414a;align=center;spacing=0;strokeColor=#3a414a;strokeOpacity=100;fillOpacity=100;rounded=1;absoluteArcSize=1;arcSize=9;fillColor=#edf5ff;strokeWidth=1.5;" parent="1" vertex="1">
          <mxGeometry x="3111.1" y="175" width="285" height="229.25" as="geometry" />
        </mxCell>
        <mxCell id="eTPqjNfUhPoHLtcQSdr4-185" value="" style="part=1;html=1;resizeHeight=0;strokeColor=none;fillColor=none;align=left;verticalAlign=middle;spacingLeft=4;spacingRight=4;overflow=hidden;rotatable=0;points=[[0,0.5],[1,0.5]];portConstraint=eastwest;swimlaneFillColor=#edf5ff;strokeOpacity=100;fillOpacity=100;whiteSpace=wrap;fontSize=13;" parent="eTPqjNfUhPoHLtcQSdr4-184" vertex="1">
          <mxGeometry y="28" width="285" height="71" as="geometry" />
        </mxCell>
        <mxCell id="eTPqjNfUhPoHLtcQSdr4-186" value="" style="line;strokeWidth=1;fillColor=none;align=left;verticalAlign=middle;spacingTop=-1;spacingLeft=3;spacingRight=3;rotatable=0;labelPosition=right;points=[];portConstraint=eastwest;" parent="eTPqjNfUhPoHLtcQSdr4-184" vertex="1">
          <mxGeometry y="99" width="285" height="8" as="geometry" />
        </mxCell>
        <mxCell id="eTPqjNfUhPoHLtcQSdr4-187" value="" style="part=1;html=1;resizeHeight=0;strokeColor=none;fillColor=none;align=left;verticalAlign=middle;spacingLeft=4;spacingRight=4;overflow=hidden;rotatable=0;points=[[0,0.5],[1,0.5]];portConstraint=eastwest;swimlaneFillColor=#edf5ff;strokeOpacity=100;fillOpacity=100;whiteSpace=wrap;fontSize=13;" parent="eTPqjNfUhPoHLtcQSdr4-184" vertex="1">
          <mxGeometry y="107" width="285" height="122.25" as="geometry" />
        </mxCell>
        <mxCell id="eTPqjNfUhPoHLtcQSdr4-188" value="TeleCompanies" style="html=1;overflow=block;blockSpacing=1;swimlane;childLayout=stackLayout;horizontal=1;horizontalStack=0;resizeParent=1;resizeParentMax=0;resizeLast=0;collapsible=0;fontStyle=0;marginBottom=0;swimlaneFillColor=#edf5ff;startSize=28;whiteSpace=wrap;fontSize=16.7;fontColor=#3a414a;align=center;spacing=0;strokeColor=#3a414a;strokeOpacity=100;fillOpacity=100;rounded=1;absoluteArcSize=1;arcSize=9;fillColor=#edf5ff;strokeWidth=1.5;" parent="1" vertex="1">
          <mxGeometry x="3113.1" y="465" width="285" height="229.25" as="geometry" />
        </mxCell>
        <mxCell id="eTPqjNfUhPoHLtcQSdr4-189" value="" style="part=1;html=1;resizeHeight=0;strokeColor=none;fillColor=none;align=left;verticalAlign=middle;spacingLeft=4;spacingRight=4;overflow=hidden;rotatable=0;points=[[0,0.5],[1,0.5]];portConstraint=eastwest;swimlaneFillColor=#edf5ff;strokeOpacity=100;fillOpacity=100;whiteSpace=wrap;fontSize=13;" parent="eTPqjNfUhPoHLtcQSdr4-188" vertex="1">
          <mxGeometry y="28" width="285" height="71" as="geometry" />
        </mxCell>
        <mxCell id="eTPqjNfUhPoHLtcQSdr4-190" value="" style="line;strokeWidth=1;fillColor=none;align=left;verticalAlign=middle;spacingTop=-1;spacingLeft=3;spacingRight=3;rotatable=0;labelPosition=right;points=[];portConstraint=eastwest;" parent="eTPqjNfUhPoHLtcQSdr4-188" vertex="1">
          <mxGeometry y="99" width="285" height="8" as="geometry" />
        </mxCell>
        <mxCell id="eTPqjNfUhPoHLtcQSdr4-191" value="" style="part=1;html=1;resizeHeight=0;strokeColor=none;fillColor=none;align=left;verticalAlign=middle;spacingLeft=4;spacingRight=4;overflow=hidden;rotatable=0;points=[[0,0.5],[1,0.5]];portConstraint=eastwest;swimlaneFillColor=#edf5ff;strokeOpacity=100;fillOpacity=100;whiteSpace=wrap;fontSize=13;" parent="eTPqjNfUhPoHLtcQSdr4-188" vertex="1">
          <mxGeometry y="107" width="285" height="122.25" as="geometry" />
        </mxCell>
        <mxCell id="eTPqjNfUhPoHLtcQSdr4-192" value="" style="html=1;jettySize=18;whiteSpace=wrap;fontSize=13;strokeColor=#3a414a;strokeOpacity=100;dashed=1;fixDash=1;strokeWidth=0.8;rounded=1;arcSize=24;edgeStyle=orthogonalEdgeStyle;startArrow=none;endArrow=open;entryX=1;entryY=0.25;lucidId=IZXLPXXNEyKl;entryDx=0;entryDy=0;" parent="1" target="eTPqjNfUhPoHLtcQSdr4-228" edge="1">
          <mxGeometry width="100" height="100" relative="1" as="geometry">
            <Array as="points" />
            <mxPoint x="2566.1" y="853" as="sourcePoint" />
            <mxPoint x="2236.1" y="604" as="targetPoint" />
          </mxGeometry>
        </mxCell>
        <mxCell id="eTPqjNfUhPoHLtcQSdr4-193" value="Implment" style="text;html=1;resizable=0;labelBackgroundColor=default;align=center;verticalAlign=middle;fontColor=#333333;fontSize=13.3;" parent="eTPqjNfUhPoHLtcQSdr4-192" vertex="1">
          <mxGeometry relative="1" as="geometry" />
        </mxCell>
        <mxCell id="eTPqjNfUhPoHLtcQSdr4-194" style="edgeStyle=orthogonalEdgeStyle;rounded=0;orthogonalLoop=1;jettySize=auto;html=1;exitX=0;exitY=0.5;exitDx=0;exitDy=0;entryX=1;entryY=0.5;entryDx=0;entryDy=0;" parent="1" source="eTPqjNfUhPoHLtcQSdr4-187" target="eTPqjNfUhPoHLtcQSdr4-172" edge="1">
          <mxGeometry relative="1" as="geometry" />
        </mxCell>
        <mxCell id="eTPqjNfUhPoHLtcQSdr4-195" style="edgeStyle=orthogonalEdgeStyle;rounded=0;orthogonalLoop=1;jettySize=auto;html=1;exitX=0;exitY=0.5;exitDx=0;exitDy=0;entryX=1;entryY=0.5;entryDx=0;entryDy=0;" parent="1" source="eTPqjNfUhPoHLtcQSdr4-191" target="eTPqjNfUhPoHLtcQSdr4-172" edge="1">
          <mxGeometry relative="1" as="geometry" />
        </mxCell>
        <mxCell id="eTPqjNfUhPoHLtcQSdr4-196" style="edgeStyle=orthogonalEdgeStyle;rounded=0;orthogonalLoop=1;jettySize=auto;html=1;exitX=0;exitY=0.5;exitDx=0;exitDy=0;entryX=1;entryY=0.5;entryDx=0;entryDy=0;" parent="1" source="eTPqjNfUhPoHLtcQSdr4-183" target="eTPqjNfUhPoHLtcQSdr4-172" edge="1">
          <mxGeometry relative="1" as="geometry" />
        </mxCell>
        <mxCell id="eTPqjNfUhPoHLtcQSdr4-149" value="&amp;lt;&amp;lt;interface&amp;gt;&amp;gt;&lt;br&gt;DB" style="html=1;overflow=block;blockSpacing=1;swimlane;childLayout=stackLayout;horizontal=1;horizontalStack=0;resizeParent=1;resizeParentMax=0;resizeLast=0;collapsible=0;marginBottom=0;swimlaneFillColor=#edf5ff;startSize=74;whiteSpace=wrap;fontSize=16.7;fontColor=#3a414a;fontStyle=2;align=center;spacing=0;strokeColor=#3a414a;strokeOpacity=100;fillOpacity=100;rounded=1;absoluteArcSize=1;arcSize=9;fillColor=#edf5ff;strokeWidth=1.5;" parent="1" vertex="1">
          <mxGeometry x="3020" y="-425" width="410" height="224.5" as="geometry" />
        </mxCell>
        <mxCell id="eTPqjNfUhPoHLtcQSdr4-152" value="&lt;div style=&quot;display: flex; justify-content: null; text-align: null; align-items: baseline; font-size: 0; line-height: 1.25;margin-top: -2px;&quot;&gt;&lt;span&gt;&lt;span style=&quot;font-size:16.7px;color:#3a414a;&quot;&gt;+ AddUser(user: User): void&lt;br&gt;&lt;/span&gt;&lt;/span&gt;&lt;/div&gt;&lt;div style=&quot;display: flex; justify-content: null; text-align: null; align-items: baseline; font-size: 0; line-height: 1.25;margin-top: -2px;&quot;&gt;&lt;span&gt;&lt;span style=&quot;font-size:16.7px;color:#3a414a;&quot;&gt;+ RemoevUser(user: User): void&lt;br&gt;&lt;/span&gt;&lt;/span&gt;&lt;/div&gt;&lt;div style=&quot;display: flex; justify-content: null; text-align: null; align-items: baseline; font-size: 0; line-height: 1.25;margin-top: -2px;&quot;&gt;&lt;span&gt;&lt;span style=&quot;font-size:16.7px;color:#3a414a;&quot;&gt;+ FindUserName(userName: String): bool&lt;br&gt;+ FindUser(userName: String): User&lt;span style=&quot;white-space: pre;&quot;&gt;&#x9;&lt;/span&gt;&lt;/span&gt;&lt;/span&gt;&lt;/div&gt;&lt;div style=&quot;display: flex; justify-content: null; text-align: null; align-items: baseline; font-size: 0; line-height: 1.25;margin-top: -2px;&quot;&gt;&lt;span&gt;&lt;span style=&quot;font-size:16.7px;color:#3a414a;&quot;&gt;+ loadProfile(Username: String): User&lt;br&gt;&lt;/span&gt;&lt;/span&gt;&lt;/div&gt;&lt;div style=&quot;display: flex; justify-content: null; text-align: null; align-items: baseline; font-size: 0; line-height: 1.25;margin-top: -2px;&quot;&gt;&lt;span&gt;&lt;/span&gt;&lt;/div&gt;" style="part=1;html=1;resizeHeight=0;strokeColor=none;fillColor=none;align=left;verticalAlign=middle;spacingLeft=4;spacingRight=4;overflow=hidden;rotatable=0;points=[[0,0.5],[1,0.5]];portConstraint=eastwest;swimlaneFillColor=#edf5ff;strokeOpacity=100;fillOpacity=100;whiteSpace=wrap;fontSize=16.7;fontColor=#3a414a;" parent="eTPqjNfUhPoHLtcQSdr4-149" vertex="1">
          <mxGeometry y="74" width="410" height="150.5" as="geometry" />
        </mxCell>
        <mxCell id="eTPqjNfUhPoHLtcQSdr4-221" value="" style="html=1;jettySize=18;whiteSpace=wrap;fontSize=13;strokeColor=#333333;strokeOpacity=100;strokeWidth=0.8;rounded=1;arcSize=24;edgeStyle=orthogonalEdgeStyle;startArrow=none;endArrow=none;endFill=0;entryX=0;entryY=0.5;lucidId=t0XLg~yR4Gcj;entryDx=0;entryDy=0;" parent="1" source="eTPqjNfUhPoHLtcQSdr4-4" target="eTPqjNfUhPoHLtcQSdr4-95" edge="1">
          <mxGeometry width="100" height="100" relative="1" as="geometry">
            <Array as="points" />
            <mxPoint x="807" y="-38" as="sourcePoint" />
            <mxPoint x="985" y="-70" as="targetPoint" />
          </mxGeometry>
        </mxCell>
        <mxCell id="eTPqjNfUhPoHLtcQSdr4-222" value="1" style="text;html=1;resizable=0;labelBackgroundColor=default;align=center;verticalAlign=middle;fontColor=#333333;fontSize=21.8;" parent="eTPqjNfUhPoHLtcQSdr4-221" vertex="1">
          <mxGeometry x="0.9126016260162606" relative="1" as="geometry">
            <mxPoint x="-14" y="-23" as="offset" />
          </mxGeometry>
        </mxCell>
        <mxCell id="eTPqjNfUhPoHLtcQSdr4-223" value="1" style="text;html=1;resizable=0;labelBackgroundColor=default;align=center;verticalAlign=middle;fontColor=#333333;fontSize=21.8;" parent="1" vertex="1">
          <mxGeometry x="1027.9954408506721" y="-71.00499712428655" as="geometry">
            <mxPoint x="-119" y="-64" as="offset" />
          </mxGeometry>
        </mxCell>
        <mxCell id="hYVjwCgE5RL3LCAW0c2I-79" style="edgeStyle=orthogonalEdgeStyle;rounded=0;orthogonalLoop=1;jettySize=auto;html=1;exitX=0.25;exitY=0;exitDx=0;exitDy=0;entryX=1;entryY=0.5;entryDx=0;entryDy=0;endArrow=none;endFill=0;startArrow=classicThin;startFill=1;" parent="1" source="eTPqjNfUhPoHLtcQSdr4-227" target="hYVjwCgE5RL3LCAW0c2I-83" edge="1">
          <mxGeometry relative="1" as="geometry">
            <mxPoint x="-467" y="-922.5" as="targetPoint" />
            <Array as="points">
              <mxPoint x="2007" y="-639" />
              <mxPoint x="-145" y="-639" />
              <mxPoint x="-145" y="-931" />
            </Array>
          </mxGeometry>
        </mxCell>
        <mxCell id="eTPqjNfUhPoHLtcQSdr4-227" value="&amp;lt;&amp;lt;interface&amp;gt;&amp;gt;&lt;br&gt;API" style="swimlane;whiteSpace=wrap;html=1;startSize=43;" parent="1" vertex="1">
          <mxGeometry x="1933" y="265" width="294" height="200" as="geometry" />
        </mxCell>
        <mxCell id="eTPqjNfUhPoHLtcQSdr4-228" value="&lt;div style=&quot;border-color: var(--border-color); text-align: left; display: flex; align-items: baseline; font-size: 0px; line-height: 1.25; margin-top: -2px;&quot;&gt;&lt;span style=&quot;border-color: var(--border-color);&quot;&gt;&lt;/span&gt;&lt;/div&gt;&lt;div style=&quot;border-color: var(--border-color); text-align: left; display: flex; align-items: baseline; font-size: 0px; line-height: 1.25; margin-top: -2px;&quot;&gt;&lt;span style=&quot;border-color: var(--border-color);&quot;&gt;&lt;span style=&quot;border-color: var(--border-color); font-size: 16.7px; color: rgb(58, 65, 74);&quot;&gt;+ Verify(user: User): bool&lt;br&gt;+ GetBalance(): double&lt;/span&gt;&lt;/span&gt;&lt;/div&gt;" style="text;html=1;strokeColor=none;fillColor=none;align=center;verticalAlign=middle;whiteSpace=wrap;rounded=0;" parent="eTPqjNfUhPoHLtcQSdr4-227" vertex="1">
          <mxGeometry x="3" y="30" width="290" height="170" as="geometry" />
        </mxCell>
        <mxCell id="eTPqjNfUhPoHLtcQSdr4-234" value="&amp;lt;&amp;lt;interface&amp;gt;&amp;gt;&lt;br&gt;OTP" style="swimlane;whiteSpace=wrap;html=1;startSize=43;" parent="1" vertex="1">
          <mxGeometry x="1914.85" y="643" width="308" height="200" as="geometry" />
        </mxCell>
        <mxCell id="eTPqjNfUhPoHLtcQSdr4-235" value="&lt;div style=&quot;border-color: var(--border-color); text-align: left; display: flex; align-items: baseline; font-size: 0px; line-height: 1.25; margin-top: -2px;&quot;&gt;&lt;span style=&quot;border-color: var(--border-color);&quot;&gt;&lt;/span&gt;&lt;/div&gt;&lt;div style=&quot;border-color: var(--border-color); text-align: left; display: flex; align-items: baseline; font-size: 0px; line-height: 1.25; margin-top: -2px;&quot;&gt;&lt;span style=&quot;border-color: var(--border-color);&quot;&gt;&lt;span style=&quot;border-color: var(--border-color); font-size: 16.7px; color: rgb(58, 65, 74);&quot;&gt;+ SendOTP(mobileNo: String): void&lt;br&gt;+ VerifyOTP(OTPsend String): bool&lt;/span&gt;&lt;/span&gt;&lt;/div&gt;" style="text;html=1;strokeColor=none;fillColor=none;align=center;verticalAlign=middle;whiteSpace=wrap;rounded=0;" parent="eTPqjNfUhPoHLtcQSdr4-234" vertex="1">
          <mxGeometry x="-3" y="35" width="290" height="170" as="geometry" />
        </mxCell>
        <mxCell id="hYVjwCgE5RL3LCAW0c2I-1" value="Bank User" style="html=1;overflow=block;blockSpacing=1;swimlane;childLayout=stackLayout;horizontal=1;horizontalStack=0;resizeParent=1;resizeParentMax=0;resizeLast=0;collapsible=0;fontStyle=0;marginBottom=0;swimlaneFillColor=#edf5ff;startSize=41;whiteSpace=wrap;fontSize=16.7;fontColor=#3a414a;align=center;spacing=0;strokeColor=#3a414a;strokeOpacity=100;fillOpacity=100;rounded=1;absoluteArcSize=1;arcSize=9;fillColor=#edf5ff;strokeWidth=1.5;" parent="1" vertex="1">
          <mxGeometry x="484" y="1088" width="555" height="183" as="geometry" />
        </mxCell>
        <mxCell id="hYVjwCgE5RL3LCAW0c2I-2" value="&lt;div style=&quot;display: flex; justify-content: null; text-align: null; align-items: baseline; font-size: 0; line-height: 1.25;margin-top: -2px;&quot;&gt;&lt;span&gt;&lt;div style=&quot;border-color: var(--border-color); display: flex; align-items: baseline; line-height: 1.25; margin-top: -2px;&quot;&gt;&lt;span style=&quot;border-color: var(--border-color);&quot;&gt;&lt;/span&gt;&lt;/div&gt;&lt;div style=&quot;border-color: var(--border-color); display: flex; align-items: baseline; line-height: 1.25; margin-top: -2px;&quot;&gt;&lt;span style=&quot;border-color: var(--border-color);&quot;&gt;&lt;div style=&quot;border-color: var(--border-color); display: flex; align-items: baseline; line-height: 1.25; margin-top: -2px;&quot;&gt;&lt;span style=&quot;border-color: var(--border-color);&quot;&gt;&lt;/span&gt;&lt;/div&gt;&lt;div style=&quot;border-color: var(--border-color); display: flex; align-items: baseline; line-height: 1.25; margin-top: -2px;&quot;&gt;&lt;span style=&quot;border-color: var(--border-color);&quot;&gt;&lt;span style=&quot;border-color: var(--border-color); font-size: 16.7px;&quot;&gt;&lt;br&gt;- Cardno: String&lt;br&gt;- CVV : int&lt;br style=&quot;border-color: var(--border-color);&quot;&gt;&lt;/span&gt;&lt;/span&gt;&lt;/div&gt;&lt;div style=&quot;border-color: var(--border-color); display: flex; align-items: baseline; line-height: 1.25; margin-top: -2px;&quot;&gt;&lt;span style=&quot;border-color: var(--border-color);&quot;&gt;&lt;span style=&quot;border-color: var(--border-color); font-size: 16.7px;&quot;&gt;- ExpirationDate: Date&lt;/span&gt;&lt;/span&gt;&lt;/div&gt;&lt;/span&gt;&lt;/div&gt;&lt;/span&gt;&lt;/div&gt;" style="part=1;html=1;resizeHeight=0;strokeColor=none;fillColor=none;align=left;verticalAlign=middle;spacingLeft=4;spacingRight=4;overflow=hidden;rotatable=0;points=[[0,0.5],[1,0.5]];portConstraint=eastwest;swimlaneFillColor=#edf5ff;strokeOpacity=100;fillOpacity=100;whiteSpace=wrap;fontSize=16.7;fontColor=#3a414a;" parent="hYVjwCgE5RL3LCAW0c2I-1" vertex="1">
          <mxGeometry y="41" width="555" height="97" as="geometry" />
        </mxCell>
        <mxCell id="hYVjwCgE5RL3LCAW0c2I-3" value="" style="line;strokeWidth=1;fillColor=none;align=left;verticalAlign=middle;spacingTop=-1;spacingLeft=3;spacingRight=3;rotatable=0;labelPosition=right;points=[];portConstraint=eastwest;" parent="hYVjwCgE5RL3LCAW0c2I-1" vertex="1">
          <mxGeometry y="138" width="555" height="12" as="geometry" />
        </mxCell>
        <mxCell id="hYVjwCgE5RL3LCAW0c2I-4" value="+ VewCardData(): String" style="part=1;resizeHeight=0;strokeColor=none;fillColor=none;align=left;verticalAlign=middle;spacingLeft=4;spacingRight=4;rotatable=0;points=[[0,0.5],[1,0.5]];portConstraint=eastwest;swimlaneFillColor=#edf5ff;strokeOpacity=100;fillOpacity=100;whiteSpace=wrap;overflow=block;blockSpacing=1;html=1;fontSize=13;" parent="hYVjwCgE5RL3LCAW0c2I-1" vertex="1">
          <mxGeometry y="150" width="555" height="33" as="geometry" />
        </mxCell>
        <mxCell id="hYVjwCgE5RL3LCAW0c2I-5" value="Wallet User" style="html=1;overflow=block;blockSpacing=1;swimlane;childLayout=stackLayout;horizontal=1;horizontalStack=0;resizeParent=1;resizeParentMax=0;resizeLast=0;collapsible=0;fontStyle=0;marginBottom=0;swimlaneFillColor=#edf5ff;startSize=41;whiteSpace=wrap;fontSize=16.7;fontColor=#3a414a;align=center;spacing=0;strokeColor=#3a414a;strokeOpacity=100;fillOpacity=100;rounded=1;absoluteArcSize=1;arcSize=9;fillColor=#edf5ff;strokeWidth=1.5;" parent="1" vertex="1">
          <mxGeometry x="-128" y="1088" width="555" height="204" as="geometry" />
        </mxCell>
        <mxCell id="hYVjwCgE5RL3LCAW0c2I-6" value="&lt;div style=&quot;display: flex; justify-content: null; text-align: null; align-items: baseline; font-size: 0; line-height: 1.25;margin-top: -2px;&quot;&gt;&lt;span&gt;&lt;div style=&quot;border-color: var(--border-color); display: flex; align-items: baseline; line-height: 1.25; margin-top: -2px;&quot;&gt;&lt;span style=&quot;border-color: var(--border-color);&quot;&gt;&lt;/span&gt;&lt;/div&gt;&lt;div style=&quot;border-color: var(--border-color); display: flex; align-items: baseline; line-height: 1.25; margin-top: -2px;&quot;&gt;&lt;span style=&quot;border-color: var(--border-color);&quot;&gt;&lt;br&gt;&lt;/span&gt;&lt;/div&gt;&lt;/span&gt;&lt;/div&gt;" style="part=1;html=1;resizeHeight=0;strokeColor=none;fillColor=none;align=left;verticalAlign=middle;spacingLeft=4;spacingRight=4;overflow=hidden;rotatable=0;points=[[0,0.5],[1,0.5]];portConstraint=eastwest;swimlaneFillColor=#edf5ff;strokeOpacity=100;fillOpacity=100;whiteSpace=wrap;fontSize=16.7;fontColor=#3a414a;" parent="hYVjwCgE5RL3LCAW0c2I-5" vertex="1">
          <mxGeometry y="41" width="555" height="118" as="geometry" />
        </mxCell>
        <mxCell id="hYVjwCgE5RL3LCAW0c2I-7" value="" style="line;strokeWidth=1;fillColor=none;align=left;verticalAlign=middle;spacingTop=-1;spacingLeft=3;spacingRight=3;rotatable=0;labelPosition=right;points=[];portConstraint=eastwest;" parent="hYVjwCgE5RL3LCAW0c2I-5" vertex="1">
          <mxGeometry y="159" width="555" height="12" as="geometry" />
        </mxCell>
        <mxCell id="hYVjwCgE5RL3LCAW0c2I-8" value="+ VewWalletData(): double" style="part=1;resizeHeight=0;strokeColor=none;fillColor=none;align=left;verticalAlign=middle;spacingLeft=4;spacingRight=4;rotatable=0;points=[[0,0.5],[1,0.5]];portConstraint=eastwest;swimlaneFillColor=#edf5ff;strokeOpacity=100;fillOpacity=100;whiteSpace=wrap;overflow=block;blockSpacing=1;html=1;fontSize=13;" parent="hYVjwCgE5RL3LCAW0c2I-5" vertex="1">
          <mxGeometry y="171" width="555" height="33" as="geometry" />
        </mxCell>
        <mxCell id="hYVjwCgE5RL3LCAW0c2I-11" style="edgeStyle=orthogonalEdgeStyle;rounded=0;orthogonalLoop=1;jettySize=auto;html=1;" parent="1" target="eTPqjNfUhPoHLtcQSdr4-6" edge="1">
          <mxGeometry relative="1" as="geometry">
            <mxPoint x="380" y="1088" as="sourcePoint" />
            <Array as="points">
              <mxPoint x="386" y="48" />
              <mxPoint x="625" y="48" />
            </Array>
          </mxGeometry>
        </mxCell>
        <mxCell id="hYVjwCgE5RL3LCAW0c2I-15" value="ElectroPaymentcompanies" style="html=1;overflow=block;blockSpacing=1;swimlane;childLayout=stackLayout;horizontal=1;horizontalStack=0;resizeParent=1;resizeParentMax=0;resizeLast=0;collapsible=0;fontStyle=0;marginBottom=0;swimlaneFillColor=#edf5ff;startSize=28;whiteSpace=wrap;fontSize=16.7;fontColor=#3a414a;align=center;spacing=0;strokeColor=#3a414a;strokeOpacity=100;fillOpacity=100;rounded=1;absoluteArcSize=1;arcSize=9;fillColor=#edf5ff;strokeWidth=1.5;" parent="1" vertex="1">
          <mxGeometry x="-145" y="1371" width="285" height="221.25" as="geometry" />
        </mxCell>
        <mxCell id="hYVjwCgE5RL3LCAW0c2I-16" value="" style="part=1;html=1;resizeHeight=0;strokeColor=none;fillColor=none;align=left;verticalAlign=middle;spacingLeft=4;spacingRight=4;overflow=hidden;rotatable=0;points=[[0,0.5],[1,0.5]];portConstraint=eastwest;swimlaneFillColor=#edf5ff;strokeOpacity=100;fillOpacity=100;whiteSpace=wrap;fontSize=13;" parent="hYVjwCgE5RL3LCAW0c2I-15" vertex="1">
          <mxGeometry y="28" width="285" height="71" as="geometry" />
        </mxCell>
        <mxCell id="hYVjwCgE5RL3LCAW0c2I-18" value="" style="part=1;html=1;resizeHeight=0;strokeColor=none;fillColor=none;align=left;verticalAlign=middle;spacingLeft=4;spacingRight=4;overflow=hidden;rotatable=0;points=[[0,0.5],[1,0.5]];portConstraint=eastwest;swimlaneFillColor=#edf5ff;strokeOpacity=100;fillOpacity=100;whiteSpace=wrap;fontSize=13;" parent="hYVjwCgE5RL3LCAW0c2I-15" vertex="1">
          <mxGeometry y="99" width="285" height="122.25" as="geometry" />
        </mxCell>
        <mxCell id="hYVjwCgE5RL3LCAW0c2I-19" value="Banks" style="html=1;overflow=block;blockSpacing=1;swimlane;childLayout=stackLayout;horizontal=1;horizontalStack=0;resizeParent=1;resizeParentMax=0;resizeLast=0;collapsible=0;fontStyle=0;marginBottom=0;swimlaneFillColor=#edf5ff;startSize=28;whiteSpace=wrap;fontSize=16.7;fontColor=#3a414a;align=center;spacing=0;strokeColor=#3a414a;strokeOpacity=100;fillOpacity=100;rounded=1;absoluteArcSize=1;arcSize=9;fillColor=#edf5ff;strokeWidth=1.5;" parent="1" vertex="1">
          <mxGeometry x="219" y="1371" width="285" height="221.25" as="geometry" />
        </mxCell>
        <mxCell id="hYVjwCgE5RL3LCAW0c2I-20" value="" style="part=1;html=1;resizeHeight=0;strokeColor=none;fillColor=none;align=left;verticalAlign=middle;spacingLeft=4;spacingRight=4;overflow=hidden;rotatable=0;points=[[0,0.5],[1,0.5]];portConstraint=eastwest;swimlaneFillColor=#edf5ff;strokeOpacity=100;fillOpacity=100;whiteSpace=wrap;fontSize=13;" parent="hYVjwCgE5RL3LCAW0c2I-19" vertex="1">
          <mxGeometry y="28" width="285" height="71" as="geometry" />
        </mxCell>
        <mxCell id="hYVjwCgE5RL3LCAW0c2I-22" value="" style="part=1;html=1;resizeHeight=0;strokeColor=none;fillColor=none;align=left;verticalAlign=middle;spacingLeft=4;spacingRight=4;overflow=hidden;rotatable=0;points=[[0,0.5],[1,0.5]];portConstraint=eastwest;swimlaneFillColor=#edf5ff;strokeOpacity=100;fillOpacity=100;whiteSpace=wrap;fontSize=13;" parent="hYVjwCgE5RL3LCAW0c2I-19" vertex="1">
          <mxGeometry y="99" width="285" height="122.25" as="geometry" />
        </mxCell>
        <mxCell id="hYVjwCgE5RL3LCAW0c2I-23" value="TeleCompanies" style="html=1;overflow=block;blockSpacing=1;swimlane;childLayout=stackLayout;horizontal=1;horizontalStack=0;resizeParent=1;resizeParentMax=0;resizeLast=0;collapsible=0;fontStyle=0;marginBottom=0;swimlaneFillColor=#edf5ff;startSize=28;whiteSpace=wrap;fontSize=16.7;fontColor=#3a414a;align=center;spacing=0;strokeColor=#3a414a;strokeOpacity=100;fillOpacity=100;rounded=1;absoluteArcSize=1;arcSize=9;fillColor=#edf5ff;strokeWidth=1.5;" parent="1" vertex="1">
          <mxGeometry x="583" y="1371" width="285" height="221.25" as="geometry" />
        </mxCell>
        <mxCell id="hYVjwCgE5RL3LCAW0c2I-24" value="" style="part=1;html=1;resizeHeight=0;strokeColor=none;fillColor=none;align=left;verticalAlign=middle;spacingLeft=4;spacingRight=4;overflow=hidden;rotatable=0;points=[[0,0.5],[1,0.5]];portConstraint=eastwest;swimlaneFillColor=#edf5ff;strokeOpacity=100;fillOpacity=100;whiteSpace=wrap;fontSize=13;" parent="hYVjwCgE5RL3LCAW0c2I-23" vertex="1">
          <mxGeometry y="28" width="285" height="71" as="geometry" />
        </mxCell>
        <mxCell id="hYVjwCgE5RL3LCAW0c2I-26" value="" style="part=1;html=1;resizeHeight=0;strokeColor=none;fillColor=none;align=left;verticalAlign=middle;spacingLeft=4;spacingRight=4;overflow=hidden;rotatable=0;points=[[0,0.5],[1,0.5]];portConstraint=eastwest;swimlaneFillColor=#edf5ff;strokeOpacity=100;fillOpacity=100;whiteSpace=wrap;fontSize=13;" parent="hYVjwCgE5RL3LCAW0c2I-23" vertex="1">
          <mxGeometry y="99" width="285" height="122.25" as="geometry" />
        </mxCell>
        <mxCell id="hYVjwCgE5RL3LCAW0c2I-27" style="edgeStyle=orthogonalEdgeStyle;rounded=0;orthogonalLoop=1;jettySize=auto;html=1;exitX=0.5;exitY=0;exitDx=0;exitDy=0;entryX=0.889;entryY=1.006;entryDx=0;entryDy=0;entryPerimeter=0;" parent="1" source="hYVjwCgE5RL3LCAW0c2I-23" target="hYVjwCgE5RL3LCAW0c2I-8" edge="1">
          <mxGeometry relative="1" as="geometry" />
        </mxCell>
        <mxCell id="hYVjwCgE5RL3LCAW0c2I-28" style="edgeStyle=orthogonalEdgeStyle;rounded=0;orthogonalLoop=1;jettySize=auto;html=1;exitX=0.5;exitY=0;exitDx=0;exitDy=0;entryX=0.739;entryY=0.958;entryDx=0;entryDy=0;entryPerimeter=0;" parent="1" source="hYVjwCgE5RL3LCAW0c2I-19" target="hYVjwCgE5RL3LCAW0c2I-8" edge="1">
          <mxGeometry relative="1" as="geometry">
            <Array as="points">
              <mxPoint x="362" y="1332" />
              <mxPoint x="282" y="1332" />
            </Array>
          </mxGeometry>
        </mxCell>
        <mxCell id="hYVjwCgE5RL3LCAW0c2I-29" style="edgeStyle=orthogonalEdgeStyle;rounded=0;orthogonalLoop=1;jettySize=auto;html=1;exitX=0.75;exitY=0;exitDx=0;exitDy=0;entryX=0.618;entryY=1.006;entryDx=0;entryDy=0;entryPerimeter=0;" parent="1" source="hYVjwCgE5RL3LCAW0c2I-15" target="hYVjwCgE5RL3LCAW0c2I-8" edge="1">
          <mxGeometry relative="1" as="geometry" />
        </mxCell>
        <mxCell id="hYVjwCgE5RL3LCAW0c2I-30" value="&amp;lt;&amp;lt;interface&amp;gt;&amp;gt;&lt;br&gt;WalletUserTransfer" style="swimlane;whiteSpace=wrap;html=1;startSize=43;" parent="1" vertex="1">
          <mxGeometry x="-535" y="-671" width="308" height="200" as="geometry" />
        </mxCell>
        <mxCell id="hYVjwCgE5RL3LCAW0c2I-31" value="+Transfer(amount : double, WalletUser receiver): bool" style="text;html=1;strokeColor=none;fillColor=none;align=center;verticalAlign=middle;whiteSpace=wrap;rounded=0;" parent="hYVjwCgE5RL3LCAW0c2I-30" vertex="1">
          <mxGeometry x="9" y="30" width="290" height="170" as="geometry" />
        </mxCell>
        <mxCell id="hYVjwCgE5RL3LCAW0c2I-38" style="edgeStyle=orthogonalEdgeStyle;rounded=0;orthogonalLoop=1;jettySize=auto;html=1;exitX=0.75;exitY=0;exitDx=0;exitDy=0;endArrow=diamond;endFill=1;entryX=0.475;entryY=1.007;entryDx=0;entryDy=0;entryPerimeter=0;" parent="1" source="hYVjwCgE5RL3LCAW0c2I-32" target="hYVjwCgE5RL3LCAW0c2I-83" edge="1">
          <mxGeometry relative="1" as="geometry">
            <mxPoint x="-611.9333333333334" y="-880" as="targetPoint" />
          </mxGeometry>
        </mxCell>
        <mxCell id="hYVjwCgE5RL3LCAW0c2I-32" value="&amp;lt;&amp;lt;interface&amp;gt;&amp;gt;&lt;br&gt;BankUserTransfer" style="swimlane;whiteSpace=wrap;html=1;startSize=43;" parent="1" vertex="1">
          <mxGeometry x="-953" y="-674" width="308" height="200" as="geometry" />
        </mxCell>
        <mxCell id="hYVjwCgE5RL3LCAW0c2I-33" value="+Transfer(amount : double, BankUser receiver): bool" style="text;html=1;strokeColor=none;fillColor=none;align=center;verticalAlign=middle;whiteSpace=wrap;rounded=0;" parent="hYVjwCgE5RL3LCAW0c2I-32" vertex="1">
          <mxGeometry x="9" y="23" width="290" height="170" as="geometry" />
        </mxCell>
        <mxCell id="hYVjwCgE5RL3LCAW0c2I-37" style="edgeStyle=orthogonalEdgeStyle;rounded=0;orthogonalLoop=1;jettySize=auto;html=1;exitX=0.5;exitY=0;exitDx=0;exitDy=0;endArrow=diamond;endFill=1;entryX=0.756;entryY=1.035;entryDx=0;entryDy=0;entryPerimeter=0;" parent="1" source="hYVjwCgE5RL3LCAW0c2I-30" target="hYVjwCgE5RL3LCAW0c2I-83" edge="1">
          <mxGeometry relative="1" as="geometry">
            <mxPoint x="-451" y="-650.27" as="sourcePoint" />
            <mxPoint x="-545" y="-910.0033333333333" as="targetPoint" />
            <Array as="points">
              <mxPoint x="-381" y="-779" />
              <mxPoint x="-541" y="-779" />
            </Array>
          </mxGeometry>
        </mxCell>
        <mxCell id="hYVjwCgE5RL3LCAW0c2I-41" value="" style="html=1;jettySize=18;whiteSpace=wrap;fontSize=13;strokeColor=#3a414a;strokeOpacity=100;dashed=1;fixDash=1;strokeWidth=0.8;rounded=1;arcSize=24;edgeStyle=orthogonalEdgeStyle;startArrow=none;endArrow=open;exitX=0.75;exitY=0;lucidId=ZVcMn8zuJZiY;entryX=0.75;entryY=1;entryDx=0;entryDy=0;exitDx=0;exitDy=0;" parent="1" source="eTPqjNfUhPoHLtcQSdr4-70" target="hYVjwCgE5RL3LCAW0c2I-31" edge="1">
          <mxGeometry width="100" height="100" relative="1" as="geometry">
            <Array as="points" />
            <mxPoint x="-709" y="-464" as="targetPoint" />
            <mxPoint x="-320" y="-126" as="sourcePoint" />
          </mxGeometry>
        </mxCell>
        <mxCell id="hYVjwCgE5RL3LCAW0c2I-42" value="Implment" style="text;html=1;resizable=0;labelBackgroundColor=default;align=center;verticalAlign=middle;fontColor=#333333;fontSize=13.3;" parent="hYVjwCgE5RL3LCAW0c2I-41" vertex="1">
          <mxGeometry relative="1" as="geometry" />
        </mxCell>
        <mxCell id="hYVjwCgE5RL3LCAW0c2I-43" value="" style="html=1;jettySize=18;whiteSpace=wrap;fontSize=13;strokeColor=#3a414a;strokeOpacity=100;dashed=1;fixDash=1;strokeWidth=0.8;rounded=1;arcSize=24;edgeStyle=orthogonalEdgeStyle;startArrow=none;endArrow=open;exitX=0.75;exitY=0;lucidId=ZVcMn8zuJZiY;exitDx=0;exitDy=0;" parent="1" source="eTPqjNfUhPoHLtcQSdr4-74" target="hYVjwCgE5RL3LCAW0c2I-31" edge="1">
          <mxGeometry width="100" height="100" relative="1" as="geometry">
            <Array as="points">
              <mxPoint x="-1155" y="-214" />
              <mxPoint x="-374" y="-214" />
            </Array>
            <mxPoint x="-699" y="-454" as="targetPoint" />
            <mxPoint x="-310" y="-116" as="sourcePoint" />
          </mxGeometry>
        </mxCell>
        <mxCell id="hYVjwCgE5RL3LCAW0c2I-44" value="Implment" style="text;html=1;resizable=0;labelBackgroundColor=default;align=center;verticalAlign=middle;fontColor=#333333;fontSize=13.3;" parent="hYVjwCgE5RL3LCAW0c2I-43" vertex="1">
          <mxGeometry relative="1" as="geometry" />
        </mxCell>
        <mxCell id="hYVjwCgE5RL3LCAW0c2I-45" value="1" style="text;html=1;resizable=0;labelBackgroundColor=default;align=center;verticalAlign=middle;fontColor=#333333;fontSize=20.2;" parent="1" vertex="1">
          <mxGeometry x="-338.00000109874" y="-979.4151760978984" as="geometry">
            <mxPoint x="-11" y="283" as="offset" />
          </mxGeometry>
        </mxCell>
        <mxCell id="hYVjwCgE5RL3LCAW0c2I-46" value="1" style="text;html=1;resizable=0;labelBackgroundColor=default;align=center;verticalAlign=middle;fontColor=#333333;fontSize=20.2;" parent="1" vertex="1">
          <mxGeometry x="-345.10000109874" y="-979.4151760978984" as="geometry">
            <mxPoint x="-354" y="277" as="offset" />
          </mxGeometry>
        </mxCell>
        <mxCell id="hYVjwCgE5RL3LCAW0c2I-53" style="edgeStyle=orthogonalEdgeStyle;rounded=0;orthogonalLoop=1;jettySize=auto;html=1;" parent="1" edge="1">
          <mxGeometry relative="1" as="geometry">
            <mxPoint x="866" y="1088" as="sourcePoint" />
            <mxPoint x="722" y="-91" as="targetPoint" />
            <Array as="points">
              <mxPoint x="866" y="37" />
              <mxPoint x="722" y="37" />
            </Array>
          </mxGeometry>
        </mxCell>
        <mxCell id="hYVjwCgE5RL3LCAW0c2I-57" style="edgeStyle=orthogonalEdgeStyle;rounded=0;orthogonalLoop=1;jettySize=auto;html=1;exitX=0;exitY=0.5;exitDx=0;exitDy=0;entryX=1;entryY=0.5;entryDx=0;entryDy=0;endArrow=none;endFill=0;" parent="1" source="eTPqjNfUhPoHLtcQSdr4-58" target="eTPqjNfUhPoHLtcQSdr4-6" edge="1">
          <mxGeometry relative="1" as="geometry">
            <mxPoint x="895" y="-118" as="targetPoint" />
            <Array as="points">
              <mxPoint x="1070" y="152" />
              <mxPoint x="1070" y="158" />
              <mxPoint x="1008" y="158" />
              <mxPoint x="1008" y="-110" />
            </Array>
          </mxGeometry>
        </mxCell>
        <mxCell id="hYVjwCgE5RL3LCAW0c2I-58" value="1" style="text;html=1;resizable=0;labelBackgroundColor=default;align=center;verticalAlign=middle;fontColor=#333333;fontSize=21.8;" parent="1" vertex="1">
          <mxGeometry x="1202.9954408506721" y="171.99500287571345" as="geometry">
            <mxPoint x="-119" y="-64" as="offset" />
          </mxGeometry>
        </mxCell>
        <mxCell id="hYVjwCgE5RL3LCAW0c2I-59" style="edgeStyle=orthogonalEdgeStyle;rounded=0;orthogonalLoop=1;jettySize=auto;html=1;exitX=1;exitY=0.5;exitDx=0;exitDy=0;" parent="1" source="eTPqjNfUhPoHLtcQSdr4-95" target="eTPqjNfUhPoHLtcQSdr4-8" edge="1">
          <mxGeometry relative="1" as="geometry" />
        </mxCell>
        <mxCell id="hYVjwCgE5RL3LCAW0c2I-63" style="edgeStyle=orthogonalEdgeStyle;rounded=0;orthogonalLoop=1;jettySize=auto;html=1;exitX=1.003;exitY=0.765;exitDx=0;exitDy=0;entryX=0;entryY=0.5;entryDx=0;entryDy=0;exitPerimeter=0;" parent="1" source="eTPqjNfUhPoHLtcQSdr4-60" target="eTPqjNfUhPoHLtcQSdr4-235" edge="1">
          <mxGeometry relative="1" as="geometry" />
        </mxCell>
        <mxCell id="hYVjwCgE5RL3LCAW0c2I-64" value="1" style="text;html=1;resizable=0;labelBackgroundColor=default;align=center;verticalAlign=middle;fontColor=#333333;fontSize=21.8;" parent="1" vertex="1">
          <mxGeometry x="1904.0046963628386" y="303" as="geometry">
            <mxPoint x="-11" y="440" as="offset" />
          </mxGeometry>
        </mxCell>
        <mxCell id="hYVjwCgE5RL3LCAW0c2I-65" value="1" style="text;html=1;resizable=0;labelBackgroundColor=default;align=center;verticalAlign=middle;fontColor=#333333;fontSize=21.8;" parent="1" vertex="1">
          <mxGeometry x="1897.0033200681264" y="273.9953568763992" as="geometry">
            <mxPoint x="251" y="-576" as="offset" />
          </mxGeometry>
        </mxCell>
        <mxCell id="hYVjwCgE5RL3LCAW0c2I-69" value="UserType" style="html=1;overflow=block;blockSpacing=1;swimlane;childLayout=stackLayout;horizontal=1;horizontalStack=0;resizeParent=1;resizeParentMax=0;resizeLast=0;collapsible=0;fontStyle=0;marginBottom=0;swimlaneFillColor=#ffffff;startSize=25;whiteSpace=wrap;fontSize=16.7;fontColor=#3a414a;align=center;spacing=0;strokeColor=#3a414a;strokeOpacity=100;fillOpacity=100;rounded=1;absoluteArcSize=1;arcSize=9;fillColor=#ffffff;strokeWidth=1.5;" parent="1" vertex="1">
          <mxGeometry x="-44" y="-135" width="270" height="148.25" as="geometry" />
        </mxCell>
        <mxCell id="hYVjwCgE5RL3LCAW0c2I-70" value="Bank, Wallet" style="part=1;html=1;resizeHeight=0;strokeColor=none;fillColor=none;align=left;verticalAlign=middle;spacingLeft=4;spacingRight=4;overflow=hidden;rotatable=0;points=[[0,0.5],[1,0.5]];portConstraint=eastwest;swimlaneFillColor=#ffffff;strokeOpacity=100;fillOpacity=100;whiteSpace=wrap;fontSize=16.7;fontColor=#3a414a;" parent="hYVjwCgE5RL3LCAW0c2I-69" vertex="1">
          <mxGeometry y="25" width="270" height="52" as="geometry" />
        </mxCell>
        <mxCell id="hYVjwCgE5RL3LCAW0c2I-71" value="" style="line;strokeWidth=1;fillColor=none;align=left;verticalAlign=middle;spacingTop=-1;spacingLeft=3;spacingRight=3;rotatable=0;labelPosition=right;points=[];portConstraint=eastwest;" parent="hYVjwCgE5RL3LCAW0c2I-69" vertex="1">
          <mxGeometry y="77" width="270" height="8" as="geometry" />
        </mxCell>
        <mxCell id="hYVjwCgE5RL3LCAW0c2I-72" value="+ toString()" style="part=1;html=1;resizeHeight=0;strokeColor=none;fillColor=none;align=left;verticalAlign=middle;spacingLeft=4;spacingRight=4;overflow=hidden;rotatable=0;points=[[0,0.5],[1,0.5]];portConstraint=eastwest;swimlaneFillColor=#ffffff;strokeOpacity=100;fillOpacity=100;whiteSpace=wrap;fontSize=16.7;fontColor=#3a414a;" parent="hYVjwCgE5RL3LCAW0c2I-69" vertex="1">
          <mxGeometry y="85" width="270" height="63.25" as="geometry" />
        </mxCell>
        <mxCell id="hYVjwCgE5RL3LCAW0c2I-73" value="" style="html=1;jettySize=18;whiteSpace=wrap;fontSize=13;strokeColor=#333333;strokeOpacity=100;strokeWidth=0.8;rounded=0;startArrow=none;exitX=0.001;exitY=-0.066;exitPerimeter=0;entryX=1;entryY=0;lucidId=w9fMFlAfMmFR;exitDx=0;exitDy=0;entryDx=0;entryDy=0;" parent="1" source="eTPqjNfUhPoHLtcQSdr4-6" target="hYVjwCgE5RL3LCAW0c2I-69" edge="1">
          <mxGeometry width="100" height="100" relative="1" as="geometry">
            <Array as="points" />
            <mxPoint x="283" y="-67" as="sourcePoint" />
            <mxPoint x="285" y="9" as="targetPoint" />
          </mxGeometry>
        </mxCell>
        <mxCell id="hYVjwCgE5RL3LCAW0c2I-74" value="has" style="text;html=1;resizable=0;labelBackgroundColor=default;align=center;verticalAlign=middle;fontColor=#333333;fontSize=13;" parent="hYVjwCgE5RL3LCAW0c2I-73" vertex="1">
          <mxGeometry relative="1" as="geometry">
            <mxPoint x="10" y="-10" as="offset" />
          </mxGeometry>
        </mxCell>
        <mxCell id="hYVjwCgE5RL3LCAW0c2I-76" value="1" style="text;html=1;resizable=0;labelBackgroundColor=default;align=center;verticalAlign=middle;fontColor=#333333;fontSize=13;" parent="hYVjwCgE5RL3LCAW0c2I-73" vertex="1">
          <mxGeometry x="0.6666666666666672" relative="1" as="geometry">
            <mxPoint x="3" y="-14" as="offset" />
          </mxGeometry>
        </mxCell>
        <mxCell id="hYVjwCgE5RL3LCAW0c2I-80" value="Transfer" style="html=1;overflow=block;blockSpacing=1;swimlane;childLayout=stackLayout;horizontal=1;horizontalStack=0;resizeParent=1;resizeParentMax=0;resizeLast=0;collapsible=0;marginBottom=0;swimlaneFillColor=#edf5ff;startSize=28;whiteSpace=wrap;fontSize=16.7;fontColor=#3a414a;fontStyle=2;align=center;spacing=0;strokeColor=#3a414a;strokeOpacity=100;fillOpacity=100;rounded=1;absoluteArcSize=1;arcSize=9;fillColor=#edf5ff;strokeWidth=1.5;" parent="1" vertex="1">
          <mxGeometry x="-745" y="-1153" width="270" height="259.5" as="geometry" />
        </mxCell>
        <mxCell id="hYVjwCgE5RL3LCAW0c2I-81" value="&lt;div style=&quot;display: flex; justify-content: null; text-align: null; align-items: baseline; font-size: 0; line-height: 1.25;margin-top: -2px;&quot;&gt;&lt;span&gt;&lt;span style=&quot;font-size:16.7px;color:#3a414a;&quot;&gt;- BUTransfer : BankUserTransfer&lt;br&gt;- WUTransfer: WalletUserTransfer&lt;br&gt;- api : API&lt;/span&gt;&lt;/span&gt;&lt;span&gt;&lt;span style=&quot;font-size:16.7px;color:#3a414a;&quot;&gt;&lt;br&gt;&lt;/span&gt;&lt;/span&gt;&lt;span&gt;&lt;span style=&quot;font-size:16.7px;color:#3a414a;&quot;&gt;&lt;br&gt;&lt;br&gt;&lt;/span&gt;&lt;/span&gt;&lt;/div&gt;&lt;div style=&quot;display: flex; justify-content: null; text-align: null; align-items: baseline; font-size: 0; line-height: 1.25;margin-top: -2px;&quot;&gt;&lt;span&gt;&lt;/span&gt;&lt;/div&gt;" style="part=1;html=1;resizeHeight=0;strokeColor=none;fillColor=none;align=left;verticalAlign=middle;spacingLeft=4;spacingRight=4;overflow=hidden;rotatable=0;points=[[0,0.5],[1,0.5]];portConstraint=eastwest;swimlaneFillColor=#edf5ff;strokeOpacity=100;fillOpacity=100;whiteSpace=wrap;fontSize=16.7;fontColor=#3a414a;" parent="hYVjwCgE5RL3LCAW0c2I-80" vertex="1">
          <mxGeometry y="28" width="270" height="149" as="geometry" />
        </mxCell>
        <mxCell id="hYVjwCgE5RL3LCAW0c2I-82" value="" style="line;strokeWidth=1;fillColor=none;align=left;verticalAlign=middle;spacingTop=-1;spacingLeft=3;spacingRight=3;rotatable=0;labelPosition=right;points=[];portConstraint=eastwest;" parent="hYVjwCgE5RL3LCAW0c2I-80" vertex="1">
          <mxGeometry y="177" width="270" height="8" as="geometry" />
        </mxCell>
        <mxCell id="hYVjwCgE5RL3LCAW0c2I-83" value="&lt;div style=&quot;display: flex; justify-content: null; text-align: null; align-items: baseline; font-size: 0; line-height: 1.25;margin-top: -2px;&quot;&gt;&lt;span&gt;+Transfer(amount : double, user:User): bool&lt;br&gt;&lt;/span&gt;&lt;/div&gt;&lt;div style=&quot;display: flex; justify-content: null; text-align: null; align-items: baseline; font-size: 0; line-height: 1.25;margin-top: -2px;&quot;&gt;&lt;span&gt;&lt;span style=&quot;font-size:16.7px;color:#3a414a;font-style: italic;&quot;&gt;+ Transfer(amount : double, user : User) : bool&lt;/span&gt;:Transfer(amount : double, user:User): bool&lt;/span&gt;&lt;/div&gt;" style="part=1;resizeHeight=0;strokeColor=none;fillColor=none;align=left;verticalAlign=middle;spacingLeft=4;spacingRight=4;rotatable=0;points=[[0,0.5],[1,0.5]];portConstraint=eastwest;swimlaneFillColor=#edf5ff;strokeOpacity=100;fillOpacity=100;whiteSpace=wrap;overflow=block;blockSpacing=1;html=1;fontSize=13;" parent="hYVjwCgE5RL3LCAW0c2I-80" vertex="1">
          <mxGeometry y="185" width="270" height="74.5" as="geometry" />
        </mxCell>
        <mxCell id="hYVjwCgE5RL3LCAW0c2I-84" value="PayBill" style="html=1;overflow=block;blockSpacing=1;swimlane;childLayout=stackLayout;horizontal=1;horizontalStack=0;resizeParent=1;resizeParentMax=0;resizeLast=0;collapsible=0;marginBottom=0;swimlaneFillColor=#edf5ff;startSize=28;whiteSpace=wrap;fontSize=16.7;fontColor=#3a414a;fontStyle=2;align=center;spacing=0;strokeColor=#3a414a;strokeOpacity=100;fillOpacity=100;rounded=1;absoluteArcSize=1;arcSize=9;fillColor=#edf5ff;strokeWidth=1.5;" parent="1" vertex="1">
          <mxGeometry x="-367" y="111" width="270" height="156.5" as="geometry" />
        </mxCell>
        <mxCell id="hYVjwCgE5RL3LCAW0c2I-85" value="&lt;div style=&quot;display: flex; justify-content: null; text-align: null; align-items: baseline; font-size: 0; line-height: 1.25;margin-top: -2px;&quot;&gt;&lt;span&gt;&lt;span style=&quot;font-size:16.7px;color:#3a414a;&quot;&gt;&lt;br&gt;&lt;/span&gt;&lt;/span&gt;&lt;/div&gt;&lt;div style=&quot;display: flex; justify-content: null; text-align: null; align-items: baseline; font-size: 0; line-height: 1.25;margin-top: -2px;&quot;&gt;&lt;span&gt;&lt;/span&gt;&lt;/div&gt;" style="part=1;html=1;resizeHeight=0;strokeColor=none;fillColor=none;align=left;verticalAlign=middle;spacingLeft=4;spacingRight=4;overflow=hidden;rotatable=0;points=[[0,0.5],[1,0.5]];portConstraint=eastwest;swimlaneFillColor=#edf5ff;strokeOpacity=100;fillOpacity=100;whiteSpace=wrap;fontSize=16.7;fontColor=#3a414a;" parent="hYVjwCgE5RL3LCAW0c2I-84" vertex="1">
          <mxGeometry y="28" width="270" height="46" as="geometry" />
        </mxCell>
        <mxCell id="hYVjwCgE5RL3LCAW0c2I-86" value="" style="line;strokeWidth=1;fillColor=none;align=left;verticalAlign=middle;spacingTop=-1;spacingLeft=3;spacingRight=3;rotatable=0;labelPosition=right;points=[];portConstraint=eastwest;" parent="hYVjwCgE5RL3LCAW0c2I-84" vertex="1">
          <mxGeometry y="74" width="270" height="8" as="geometry" />
        </mxCell>
        <mxCell id="hYVjwCgE5RL3LCAW0c2I-87" value="&lt;div style=&quot;display: flex; justify-content: null; text-align: null; align-items: baseline; font-size: 0; line-height: 1.25;margin-top: -2px;&quot;&gt;&lt;span&gt;&lt;span style=&quot;font-size:16.7px;color:#3a414a;font-style: italic;&quot;&gt;+ payBill(bill: Bill, user: User): bool&lt;br&gt;&lt;br&gt;&lt;/span&gt;&lt;/span&gt;&lt;span&gt;&lt;br&gt;&lt;/span&gt;&lt;/div&gt;" style="part=1;resizeHeight=0;strokeColor=none;fillColor=none;align=left;verticalAlign=middle;spacingLeft=4;spacingRight=4;rotatable=0;points=[[0,0.5],[1,0.5]];portConstraint=eastwest;swimlaneFillColor=#edf5ff;strokeOpacity=100;fillOpacity=100;whiteSpace=wrap;overflow=block;blockSpacing=1;html=1;fontSize=13;" parent="hYVjwCgE5RL3LCAW0c2I-84" vertex="1">
          <mxGeometry y="82" width="270" height="74.5" as="geometry" />
        </mxCell>
        <mxCell id="hYVjwCgE5RL3LCAW0c2I-90" style="edgeStyle=orthogonalEdgeStyle;rounded=0;orthogonalLoop=1;jettySize=auto;html=1;endArrow=none;endFill=0;startArrow=classic;startFill=1;exitX=1;exitY=0.75;exitDx=0;exitDy=0;" parent="1" target="hYVjwCgE5RL3LCAW0c2I-85" edge="1" source="Lbswe-sbsGk2GdFfo2za-31">
          <mxGeometry relative="1" as="geometry">
            <mxPoint x="-517" y="177" as="sourcePoint" />
            <mxPoint x="-365" y="160" as="targetPoint" />
          </mxGeometry>
        </mxCell>
        <mxCell id="hYVjwCgE5RL3LCAW0c2I-93" value="1" style="text;html=1;resizable=0;labelBackgroundColor=default;align=center;verticalAlign=middle;fontColor=#333333;fontSize=21.8;" parent="1" vertex="1">
          <mxGeometry x="-269.0021330179585" y="-306" as="geometry">
            <mxPoint x="-334" y="437" as="offset" />
          </mxGeometry>
        </mxCell>
        <mxCell id="hYVjwCgE5RL3LCAW0c2I-94" value="Water Bill" style="html=1;overflow=block;blockSpacing=1;swimlane;childLayout=stackLayout;horizontal=1;horizontalStack=0;resizeParent=1;resizeParentMax=0;resizeLast=0;collapsible=0;marginBottom=0;swimlaneFillColor=#edf5ff;startSize=28;whiteSpace=wrap;fontSize=16.7;fontColor=#3a414a;fontStyle=2;align=center;spacing=0;strokeColor=#3a414a;strokeOpacity=100;fillOpacity=100;rounded=1;absoluteArcSize=1;arcSize=9;fillColor=#edf5ff;strokeWidth=1.5;" parent="1" vertex="1">
          <mxGeometry x="-1252" y="586" width="270" height="186.5" as="geometry" />
        </mxCell>
        <mxCell id="hYVjwCgE5RL3LCAW0c2I-95" value="&lt;div style=&quot;display: flex; align-items: baseline; line-height: 1.25; margin-top: -2px;&quot;&gt;&lt;span style=&quot;font-size: 16.7px;&quot;&gt;- Consumption: int&lt;/span&gt;&lt;/div&gt;&lt;div style=&quot;display: flex; justify-content: null; text-align: null; align-items: baseline; font-size: 0; line-height: 1.25;margin-top: -2px;&quot;&gt;&lt;span&gt;&lt;/span&gt;&lt;/div&gt;" style="part=1;html=1;resizeHeight=0;strokeColor=none;fillColor=none;align=left;verticalAlign=middle;spacingLeft=4;spacingRight=4;overflow=hidden;rotatable=0;points=[[0,0.5],[1,0.5]];portConstraint=eastwest;swimlaneFillColor=#edf5ff;strokeOpacity=100;fillOpacity=100;whiteSpace=wrap;fontSize=16.7;fontColor=#3a414a;" parent="hYVjwCgE5RL3LCAW0c2I-94" vertex="1">
          <mxGeometry y="28" width="270" height="76" as="geometry" />
        </mxCell>
        <mxCell id="hYVjwCgE5RL3LCAW0c2I-96" value="" style="line;strokeWidth=1;fillColor=none;align=left;verticalAlign=middle;spacingTop=-1;spacingLeft=3;spacingRight=3;rotatable=0;labelPosition=right;points=[];portConstraint=eastwest;" parent="hYVjwCgE5RL3LCAW0c2I-94" vertex="1">
          <mxGeometry y="104" width="270" height="8" as="geometry" />
        </mxCell>
        <mxCell id="hYVjwCgE5RL3LCAW0c2I-97" value="&lt;div style=&quot;display: flex; justify-content: null; text-align: null; align-items: baseline; font-size: 0; line-height: 1.25;margin-top: -2px;&quot;&gt;&lt;span&gt;&lt;span style=&quot;font-size:16.7px;color:#3a414a;font-style: italic;&quot;&gt;+ DisplayBill(): String&lt;/span&gt;&lt;/span&gt;&lt;/div&gt;" style="part=1;resizeHeight=0;strokeColor=none;fillColor=none;align=left;verticalAlign=middle;spacingLeft=4;spacingRight=4;rotatable=0;points=[[0,0.5],[1,0.5]];portConstraint=eastwest;swimlaneFillColor=#edf5ff;strokeOpacity=100;fillOpacity=100;whiteSpace=wrap;overflow=block;blockSpacing=1;html=1;fontSize=13;" parent="hYVjwCgE5RL3LCAW0c2I-94" vertex="1">
          <mxGeometry y="112" width="270" height="74.5" as="geometry" />
        </mxCell>
        <mxCell id="hYVjwCgE5RL3LCAW0c2I-98" value="Electricity Bill" style="html=1;overflow=block;blockSpacing=1;swimlane;childLayout=stackLayout;horizontal=1;horizontalStack=0;resizeParent=1;resizeParentMax=0;resizeLast=0;collapsible=0;marginBottom=0;swimlaneFillColor=#edf5ff;startSize=28;whiteSpace=wrap;fontSize=16.7;fontColor=#3a414a;fontStyle=2;align=center;spacing=0;strokeColor=#3a414a;strokeOpacity=100;fillOpacity=100;rounded=1;absoluteArcSize=1;arcSize=9;fillColor=#edf5ff;strokeWidth=1.5;" parent="1" vertex="1">
          <mxGeometry x="-1560" y="590.5" width="270" height="186.5" as="geometry" />
        </mxCell>
        <mxCell id="hYVjwCgE5RL3LCAW0c2I-99" value="&lt;div style=&quot;display: flex; align-items: baseline; line-height: 1.25; margin-top: -2px;&quot;&gt;&lt;span style=&quot;font-size: 16.7px;&quot;&gt;- ReadNo: Int&lt;/span&gt;&lt;/div&gt;&lt;div style=&quot;display: flex; justify-content: null; text-align: null; align-items: baseline; font-size: 0; line-height: 1.25;margin-top: -2px;&quot;&gt;&lt;span&gt;&lt;/span&gt;&lt;/div&gt;" style="part=1;html=1;resizeHeight=0;strokeColor=none;fillColor=none;align=left;verticalAlign=middle;spacingLeft=4;spacingRight=4;overflow=hidden;rotatable=0;points=[[0,0.5],[1,0.5]];portConstraint=eastwest;swimlaneFillColor=#edf5ff;strokeOpacity=100;fillOpacity=100;whiteSpace=wrap;fontSize=16.7;fontColor=#3a414a;" parent="hYVjwCgE5RL3LCAW0c2I-98" vertex="1">
          <mxGeometry y="28" width="270" height="76" as="geometry" />
        </mxCell>
        <mxCell id="hYVjwCgE5RL3LCAW0c2I-100" value="" style="line;strokeWidth=1;fillColor=none;align=left;verticalAlign=middle;spacingTop=-1;spacingLeft=3;spacingRight=3;rotatable=0;labelPosition=right;points=[];portConstraint=eastwest;" parent="hYVjwCgE5RL3LCAW0c2I-98" vertex="1">
          <mxGeometry y="104" width="270" height="8" as="geometry" />
        </mxCell>
        <mxCell id="hYVjwCgE5RL3LCAW0c2I-101" value="&lt;div style=&quot;display: flex; justify-content: null; text-align: null; align-items: baseline; font-size: 0; line-height: 1.25;margin-top: -2px;&quot;&gt;&lt;span&gt;&lt;span style=&quot;font-size:16.7px;color:#3a414a;font-style: italic;&quot;&gt;+ DisplayBill(): String&lt;/span&gt;&lt;/span&gt;&lt;/div&gt;" style="part=1;resizeHeight=0;strokeColor=none;fillColor=none;align=left;verticalAlign=middle;spacingLeft=4;spacingRight=4;rotatable=0;points=[[0,0.5],[1,0.5]];portConstraint=eastwest;swimlaneFillColor=#edf5ff;strokeOpacity=100;fillOpacity=100;whiteSpace=wrap;overflow=block;blockSpacing=1;html=1;fontSize=13;" parent="hYVjwCgE5RL3LCAW0c2I-98" vertex="1">
          <mxGeometry y="112" width="270" height="74.5" as="geometry" />
        </mxCell>
        <mxCell id="Lbswe-sbsGk2GdFfo2za-25" style="edgeStyle=orthogonalEdgeStyle;rounded=0;orthogonalLoop=1;jettySize=auto;html=1;exitX=0;exitY=0.5;exitDx=0;exitDy=0;entryX=1;entryY=0.5;entryDx=0;entryDy=0;" edge="1" parent="1" source="hYVjwCgE5RL3LCAW0c2I-102" target="Lbswe-sbsGk2GdFfo2za-5">
          <mxGeometry relative="1" as="geometry">
            <Array as="points">
              <mxPoint x="-618" y="573" />
              <mxPoint x="-618" y="998" />
            </Array>
          </mxGeometry>
        </mxCell>
        <mxCell id="hYVjwCgE5RL3LCAW0c2I-102" value="&amp;lt;&amp;lt;interface&amp;gt;&amp;gt;&lt;br&gt;BillAPI" style="swimlane;whiteSpace=wrap;html=1;startSize=43;" parent="1" vertex="1">
          <mxGeometry x="-210" y="470" width="294" height="206" as="geometry" />
        </mxCell>
        <mxCell id="hYVjwCgE5RL3LCAW0c2I-103" value="&lt;div style=&quot;border-color: var(--border-color); text-align: left; display: flex; align-items: baseline; font-size: 0px; line-height: 1.25; margin-top: -2px;&quot;&gt;&lt;span style=&quot;border-color: var(--border-color);&quot;&gt;&lt;/span&gt;&lt;/div&gt;&lt;div style=&quot;border-color: var(--border-color); text-align: left; display: flex; align-items: baseline; font-size: 0px; line-height: 1.25; margin-top: -2px;&quot;&gt;&lt;span style=&quot;border-color: var(--border-color);&quot;&gt;&lt;span style=&quot;border-color: var(--border-color); font-size: 16.7px; color: rgb(58, 65, 74);&quot;&gt;&lt;br&gt;+ GetBIllExpenses(ElectroNo: int): double&lt;/span&gt;&lt;/span&gt;&lt;/div&gt;" style="text;html=1;strokeColor=none;fillColor=none;align=center;verticalAlign=middle;whiteSpace=wrap;rounded=0;" parent="hYVjwCgE5RL3LCAW0c2I-102" vertex="1">
          <mxGeometry x="33" y="32" width="238" height="170" as="geometry" />
        </mxCell>
        <mxCell id="hYVjwCgE5RL3LCAW0c2I-106" value="WaterBill API" style="html=1;overflow=block;blockSpacing=1;swimlane;childLayout=stackLayout;horizontal=1;horizontalStack=0;resizeParent=1;resizeParentMax=0;resizeLast=0;collapsible=0;marginBottom=0;swimlaneFillColor=#edf5ff;startSize=28;whiteSpace=wrap;fontSize=16.7;fontColor=#3a414a;fontStyle=2;align=center;spacing=0;strokeColor=#3a414a;strokeOpacity=100;fillOpacity=100;rounded=1;absoluteArcSize=1;arcSize=9;fillColor=#edf5ff;strokeWidth=1.5;" parent="1" vertex="1">
          <mxGeometry x="86" y="744" width="270" height="178.5" as="geometry" />
        </mxCell>
        <mxCell id="hYVjwCgE5RL3LCAW0c2I-107" value="&lt;div style=&quot;display: flex; justify-content: null; text-align: null; align-items: baseline; font-size: 0; line-height: 1.25;margin-top: -2px;&quot;&gt;&lt;span&gt;&lt;span style=&quot;font-size:16.7px;color:#3a414a;&quot;&gt;&lt;br&gt;&lt;/span&gt;&lt;/span&gt;&lt;/div&gt;&lt;div style=&quot;display: flex; justify-content: null; text-align: null; align-items: baseline; font-size: 0; line-height: 1.25;margin-top: -2px;&quot;&gt;&lt;span&gt;&lt;/span&gt;&lt;/div&gt;" style="part=1;html=1;resizeHeight=0;strokeColor=none;fillColor=none;align=left;verticalAlign=middle;spacingLeft=4;spacingRight=4;overflow=hidden;rotatable=0;points=[[0,0.5],[1,0.5]];portConstraint=eastwest;swimlaneFillColor=#edf5ff;strokeOpacity=100;fillOpacity=100;whiteSpace=wrap;fontSize=16.7;fontColor=#3a414a;" parent="hYVjwCgE5RL3LCAW0c2I-106" vertex="1">
          <mxGeometry y="28" width="270" height="76" as="geometry" />
        </mxCell>
        <mxCell id="hYVjwCgE5RL3LCAW0c2I-109" value="&lt;div style=&quot;display: flex; justify-content: null; text-align: null; align-items: baseline; font-size: 0; line-height: 1.25;margin-top: -2px;&quot;&gt;&lt;span&gt;&lt;br&gt;&lt;/span&gt;&lt;/div&gt;" style="part=1;resizeHeight=0;strokeColor=none;fillColor=none;align=left;verticalAlign=middle;spacingLeft=4;spacingRight=4;rotatable=0;points=[[0,0.5],[1,0.5]];portConstraint=eastwest;swimlaneFillColor=#edf5ff;strokeOpacity=100;fillOpacity=100;whiteSpace=wrap;overflow=block;blockSpacing=1;html=1;fontSize=13;" parent="hYVjwCgE5RL3LCAW0c2I-106" vertex="1">
          <mxGeometry y="104" width="270" height="74.5" as="geometry" />
        </mxCell>
        <mxCell id="hYVjwCgE5RL3LCAW0c2I-110" value="ElectricityBill API" style="html=1;overflow=block;blockSpacing=1;swimlane;childLayout=stackLayout;horizontal=1;horizontalStack=0;resizeParent=1;resizeParentMax=0;resizeLast=0;collapsible=0;marginBottom=0;swimlaneFillColor=#edf5ff;startSize=28;whiteSpace=wrap;fontSize=16.7;fontColor=#3a414a;fontStyle=2;align=center;spacing=0;strokeColor=#3a414a;strokeOpacity=100;fillOpacity=100;rounded=1;absoluteArcSize=1;arcSize=9;fillColor=#edf5ff;strokeWidth=1.5;" parent="1" vertex="1">
          <mxGeometry x="-221" y="744" width="270" height="178.5" as="geometry" />
        </mxCell>
        <mxCell id="hYVjwCgE5RL3LCAW0c2I-111" value="&lt;div style=&quot;display: flex; justify-content: null; text-align: null; align-items: baseline; font-size: 0; line-height: 1.25;margin-top: -2px;&quot;&gt;&lt;span&gt;&lt;span style=&quot;font-size:16.7px;color:#3a414a;&quot;&gt;&lt;br&gt;&lt;/span&gt;&lt;/span&gt;&lt;/div&gt;&lt;div style=&quot;display: flex; justify-content: null; text-align: null; align-items: baseline; font-size: 0; line-height: 1.25;margin-top: -2px;&quot;&gt;&lt;span&gt;&lt;/span&gt;&lt;/div&gt;" style="part=1;html=1;resizeHeight=0;strokeColor=none;fillColor=none;align=left;verticalAlign=middle;spacingLeft=4;spacingRight=4;overflow=hidden;rotatable=0;points=[[0,0.5],[1,0.5]];portConstraint=eastwest;swimlaneFillColor=#edf5ff;strokeOpacity=100;fillOpacity=100;whiteSpace=wrap;fontSize=16.7;fontColor=#3a414a;" parent="hYVjwCgE5RL3LCAW0c2I-110" vertex="1">
          <mxGeometry y="28" width="270" height="76" as="geometry" />
        </mxCell>
        <mxCell id="hYVjwCgE5RL3LCAW0c2I-113" value="&lt;div style=&quot;display: flex; justify-content: null; text-align: null; align-items: baseline; font-size: 0; line-height: 1.25;margin-top: -2px;&quot;&gt;&lt;span&gt;&lt;br&gt;&lt;/span&gt;&lt;/div&gt;" style="part=1;resizeHeight=0;strokeColor=none;fillColor=none;align=left;verticalAlign=middle;spacingLeft=4;spacingRight=4;rotatable=0;points=[[0,0.5],[1,0.5]];portConstraint=eastwest;swimlaneFillColor=#edf5ff;strokeOpacity=100;fillOpacity=100;whiteSpace=wrap;overflow=block;blockSpacing=1;html=1;fontSize=13;" parent="hYVjwCgE5RL3LCAW0c2I-110" vertex="1">
          <mxGeometry y="104" width="270" height="74.5" as="geometry" />
        </mxCell>
        <mxCell id="hYVjwCgE5RL3LCAW0c2I-114" value="GasBill API" style="html=1;overflow=block;blockSpacing=1;swimlane;childLayout=stackLayout;horizontal=1;horizontalStack=0;resizeParent=1;resizeParentMax=0;resizeLast=0;collapsible=0;fontStyle=0;marginBottom=0;swimlaneFillColor=#edf5ff;startSize=28;whiteSpace=wrap;fontSize=16.7;fontColor=#3a414a;align=center;spacing=0;strokeColor=#3a414a;strokeOpacity=100;fillOpacity=100;rounded=1;absoluteArcSize=1;arcSize=9;fillColor=#edf5ff;strokeWidth=1.5;" parent="1" vertex="1">
          <mxGeometry x="-527" y="744" width="270" height="178.5" as="geometry" />
        </mxCell>
        <mxCell id="hYVjwCgE5RL3LCAW0c2I-115" value="&lt;div style=&quot;display: flex; justify-content: null; text-align: null; align-items: baseline; font-size: 0; line-height: 1.25;margin-top: -2px;&quot;&gt;&lt;span&gt;&lt;br&gt;&lt;/span&gt;&lt;/div&gt;" style="part=1;html=1;resizeHeight=0;strokeColor=none;fillColor=none;align=left;verticalAlign=middle;spacingLeft=4;spacingRight=4;overflow=hidden;rotatable=0;points=[[0,0.5],[1,0.5]];portConstraint=eastwest;swimlaneFillColor=#edf5ff;strokeOpacity=100;fillOpacity=100;whiteSpace=wrap;fontSize=16.7;fontColor=#3a414a;" parent="hYVjwCgE5RL3LCAW0c2I-114" vertex="1">
          <mxGeometry y="28" width="270" height="76" as="geometry" />
        </mxCell>
        <mxCell id="hYVjwCgE5RL3LCAW0c2I-117" value="&lt;div style=&quot;display: flex; justify-content: null; text-align: null; align-items: baseline; font-size: 0; line-height: 1.25;margin-top: -2px;&quot;&gt;&lt;span&gt;&lt;br&gt;&lt;/span&gt;&lt;/div&gt;" style="part=1;resizeHeight=0;strokeColor=none;fillColor=none;align=left;verticalAlign=middle;spacingLeft=4;spacingRight=4;rotatable=0;points=[[0,0.5],[1,0.5]];portConstraint=eastwest;swimlaneFillColor=#edf5ff;strokeOpacity=100;fillOpacity=100;whiteSpace=wrap;overflow=block;blockSpacing=1;html=1;fontSize=13;" parent="hYVjwCgE5RL3LCAW0c2I-114" vertex="1">
          <mxGeometry y="104" width="270" height="74.5" as="geometry" />
        </mxCell>
        <mxCell id="hYVjwCgE5RL3LCAW0c2I-118" value="" style="html=1;jettySize=18;whiteSpace=wrap;fontSize=13;strokeColor=#3a414a;strokeOpacity=100;dashed=1;fixDash=1;strokeWidth=0.8;rounded=1;arcSize=24;edgeStyle=orthogonalEdgeStyle;startArrow=none;endArrow=open;exitX=0.5;exitY=0;entryX=0;entryY=0.75;lucidId=psgMl1geHyBB;entryDx=0;entryDy=0;exitDx=0;exitDy=0;" parent="1" source="hYVjwCgE5RL3LCAW0c2I-114" target="hYVjwCgE5RL3LCAW0c2I-102" edge="1">
          <mxGeometry width="100" height="100" relative="1" as="geometry">
            <Array as="points" />
            <mxPoint x="-703.5700000000002" y="1114" as="sourcePoint" />
            <mxPoint x="-401.57000000000016" y="967" as="targetPoint" />
          </mxGeometry>
        </mxCell>
        <mxCell id="hYVjwCgE5RL3LCAW0c2I-119" value="Implment" style="text;html=1;resizable=0;labelBackgroundColor=default;align=center;verticalAlign=middle;fontColor=#333333;fontSize=13.3;" parent="hYVjwCgE5RL3LCAW0c2I-118" vertex="1">
          <mxGeometry relative="1" as="geometry" />
        </mxCell>
        <mxCell id="hYVjwCgE5RL3LCAW0c2I-120" value="" style="html=1;jettySize=18;whiteSpace=wrap;fontSize=13;strokeColor=#3a414a;strokeOpacity=100;dashed=1;fixDash=1;strokeWidth=0.8;rounded=1;arcSize=24;edgeStyle=orthogonalEdgeStyle;startArrow=none;endArrow=open;exitX=0.25;exitY=0;lucidId=psgMl1geHyBB;exitDx=0;exitDy=0;entryX=0.25;entryY=1;entryDx=0;entryDy=0;" parent="1" source="hYVjwCgE5RL3LCAW0c2I-110" target="hYVjwCgE5RL3LCAW0c2I-103" edge="1">
          <mxGeometry width="100" height="100" relative="1" as="geometry">
            <Array as="points" />
            <mxPoint x="-526" y="756" as="sourcePoint" />
            <mxPoint x="-349" y="645" as="targetPoint" />
          </mxGeometry>
        </mxCell>
        <mxCell id="hYVjwCgE5RL3LCAW0c2I-121" value="Implment" style="text;html=1;resizable=0;labelBackgroundColor=default;align=center;verticalAlign=middle;fontColor=#333333;fontSize=13.3;" parent="hYVjwCgE5RL3LCAW0c2I-120" vertex="1">
          <mxGeometry relative="1" as="geometry" />
        </mxCell>
        <mxCell id="hYVjwCgE5RL3LCAW0c2I-122" value="" style="html=1;jettySize=18;whiteSpace=wrap;fontSize=13;strokeColor=#3a414a;strokeOpacity=100;dashed=1;fixDash=1;strokeWidth=0.8;rounded=1;arcSize=24;edgeStyle=orthogonalEdgeStyle;startArrow=none;endArrow=open;exitX=0.25;exitY=0;entryX=1;entryY=0.75;lucidId=psgMl1geHyBB;entryDx=0;entryDy=0;exitDx=0;exitDy=0;" parent="1" source="hYVjwCgE5RL3LCAW0c2I-106" target="hYVjwCgE5RL3LCAW0c2I-102" edge="1">
          <mxGeometry width="100" height="100" relative="1" as="geometry">
            <Array as="points" />
            <mxPoint x="-526" y="756" as="sourcePoint" />
            <mxPoint x="-349" y="646" as="targetPoint" />
          </mxGeometry>
        </mxCell>
        <mxCell id="hYVjwCgE5RL3LCAW0c2I-123" value="Implment" style="text;html=1;resizable=0;labelBackgroundColor=default;align=center;verticalAlign=middle;fontColor=#333333;fontSize=13.3;" parent="hYVjwCgE5RL3LCAW0c2I-122" vertex="1">
          <mxGeometry relative="1" as="geometry" />
        </mxCell>
        <mxCell id="hYVjwCgE5RL3LCAW0c2I-124" style="edgeStyle=orthogonalEdgeStyle;rounded=0;orthogonalLoop=1;jettySize=auto;html=1;exitX=-0.016;exitY=0.189;exitDx=0;exitDy=0;entryX=1;entryY=0.5;entryDx=0;entryDy=0;endArrow=none;endFill=0;startArrow=classic;startFill=1;exitPerimeter=0;" parent="1" source="hYVjwCgE5RL3LCAW0c2I-102" target="eTPqjNfUhPoHLtcQSdr4-32" edge="1">
          <mxGeometry relative="1" as="geometry">
            <Array as="points">
              <mxPoint x="-239" y="509" />
              <mxPoint x="-239" y="536" />
              <mxPoint x="-984" y="536" />
              <mxPoint x="-984" y="295" />
              <mxPoint x="-1207" y="295" />
            </Array>
          </mxGeometry>
        </mxCell>
        <mxCell id="hYVjwCgE5RL3LCAW0c2I-126" value="1" style="text;html=1;resizable=0;labelBackgroundColor=default;align=center;verticalAlign=middle;fontColor=#333333;fontSize=21.8;" parent="1" vertex="1">
          <mxGeometry x="104.9978669820415" y="46" as="geometry">
            <mxPoint x="-334" y="437" as="offset" />
          </mxGeometry>
        </mxCell>
        <mxCell id="FA0tESK-0HWC1I7DmVVN-1" value="1" style="text;html=1;resizable=0;labelBackgroundColor=default;align=center;verticalAlign=middle;fontColor=#333333;fontSize=21.8;" parent="1" vertex="1">
          <mxGeometry x="1910.3333200681263" y="291.0053568763992" as="geometry">
            <mxPoint x="122" y="-54" as="offset" />
          </mxGeometry>
        </mxCell>
        <mxCell id="Lbswe-sbsGk2GdFfo2za-5" value="&amp;lt;&amp;lt;interface&amp;gt;&amp;gt;&lt;br&gt;Company" style="swimlane;whiteSpace=wrap;html=1;startSize=43;" vertex="1" parent="1">
          <mxGeometry x="-1119" y="895" width="294" height="206" as="geometry" />
        </mxCell>
        <mxCell id="Lbswe-sbsGk2GdFfo2za-6" value="&lt;div style=&quot;border-color: var(--border-color); text-align: left; display: flex; align-items: baseline; font-size: 0px; line-height: 1.25; margin-top: -2px;&quot;&gt;&lt;span style=&quot;border-color: var(--border-color);&quot;&gt;&lt;/span&gt;&lt;/div&gt;&lt;div style=&quot;border-color: var(--border-color); text-align: left; display: flex; align-items: baseline; font-size: 0px; line-height: 1.25; margin-top: -2px;&quot;&gt;&lt;span style=&quot;border-color: var(--border-color);&quot;&gt;&lt;span style=&quot;border-color: var(--border-color); font-size: 16.7px; color: rgb(58, 65, 74);&quot;&gt;&lt;br&gt;+ GetBIllExpenses(ElectroNo: int): double&lt;/span&gt;&lt;/span&gt;&lt;/div&gt;" style="text;html=1;strokeColor=none;fillColor=none;align=center;verticalAlign=middle;whiteSpace=wrap;rounded=0;" vertex="1" parent="Lbswe-sbsGk2GdFfo2za-5">
          <mxGeometry x="33" y="32" width="238" height="170" as="geometry" />
        </mxCell>
        <mxCell id="Lbswe-sbsGk2GdFfo2za-7" value="WaterCompany" style="html=1;overflow=block;blockSpacing=1;swimlane;childLayout=stackLayout;horizontal=1;horizontalStack=0;resizeParent=1;resizeParentMax=0;resizeLast=0;collapsible=0;fontStyle=0;marginBottom=0;swimlaneFillColor=#edf5ff;startSize=28;whiteSpace=wrap;fontSize=16.7;fontColor=#3a414a;align=center;spacing=0;strokeColor=#3a414a;strokeOpacity=100;fillOpacity=100;rounded=1;absoluteArcSize=1;arcSize=9;fillColor=#edf5ff;strokeWidth=1.5;" vertex="1" parent="1">
          <mxGeometry x="-698" y="1254" width="270" height="178.5" as="geometry" />
        </mxCell>
        <mxCell id="Lbswe-sbsGk2GdFfo2za-8" value="&lt;div style=&quot;display: flex; justify-content: null; text-align: null; align-items: baseline; font-size: 0; line-height: 1.25;margin-top: -2px;&quot;&gt;&lt;span&gt;&lt;br&gt;&lt;/span&gt;&lt;/div&gt;" style="part=1;html=1;resizeHeight=0;strokeColor=none;fillColor=none;align=left;verticalAlign=middle;spacingLeft=4;spacingRight=4;overflow=hidden;rotatable=0;points=[[0,0.5],[1,0.5]];portConstraint=eastwest;swimlaneFillColor=#edf5ff;strokeOpacity=100;fillOpacity=100;whiteSpace=wrap;fontSize=16.7;fontColor=#3a414a;" vertex="1" parent="Lbswe-sbsGk2GdFfo2za-7">
          <mxGeometry y="28" width="270" height="76" as="geometry" />
        </mxCell>
        <mxCell id="Lbswe-sbsGk2GdFfo2za-10" value="&lt;div style=&quot;display: flex; justify-content: null; text-align: null; align-items: baseline; font-size: 0; line-height: 1.25;margin-top: -2px;&quot;&gt;&lt;span&gt;&lt;br&gt;&lt;/span&gt;&lt;/div&gt;" style="part=1;resizeHeight=0;strokeColor=none;fillColor=none;align=left;verticalAlign=middle;spacingLeft=4;spacingRight=4;rotatable=0;points=[[0,0.5],[1,0.5]];portConstraint=eastwest;swimlaneFillColor=#edf5ff;strokeOpacity=100;fillOpacity=100;whiteSpace=wrap;overflow=block;blockSpacing=1;html=1;fontSize=13;" vertex="1" parent="Lbswe-sbsGk2GdFfo2za-7">
          <mxGeometry y="104" width="270" height="74.5" as="geometry" />
        </mxCell>
        <mxCell id="Lbswe-sbsGk2GdFfo2za-11" value="ElectricityCompany" style="html=1;overflow=block;blockSpacing=1;swimlane;childLayout=stackLayout;horizontal=1;horizontalStack=0;resizeParent=1;resizeParentMax=0;resizeLast=0;collapsible=0;fontStyle=0;marginBottom=0;swimlaneFillColor=#edf5ff;startSize=28;whiteSpace=wrap;fontSize=16.7;fontColor=#3a414a;align=center;spacing=0;strokeColor=#3a414a;strokeOpacity=100;fillOpacity=100;rounded=1;absoluteArcSize=1;arcSize=9;fillColor=#edf5ff;strokeWidth=1.5;" vertex="1" parent="1">
          <mxGeometry x="-1022" y="1256" width="270" height="178.5" as="geometry" />
        </mxCell>
        <mxCell id="Lbswe-sbsGk2GdFfo2za-12" value="&lt;div style=&quot;display: flex; justify-content: null; text-align: null; align-items: baseline; font-size: 0; line-height: 1.25;margin-top: -2px;&quot;&gt;&lt;span&gt;&lt;br&gt;&lt;/span&gt;&lt;/div&gt;" style="part=1;html=1;resizeHeight=0;strokeColor=none;fillColor=none;align=left;verticalAlign=middle;spacingLeft=4;spacingRight=4;overflow=hidden;rotatable=0;points=[[0,0.5],[1,0.5]];portConstraint=eastwest;swimlaneFillColor=#edf5ff;strokeOpacity=100;fillOpacity=100;whiteSpace=wrap;fontSize=16.7;fontColor=#3a414a;" vertex="1" parent="Lbswe-sbsGk2GdFfo2za-11">
          <mxGeometry y="28" width="270" height="76" as="geometry" />
        </mxCell>
        <mxCell id="Lbswe-sbsGk2GdFfo2za-14" value="&lt;div style=&quot;display: flex; justify-content: null; text-align: null; align-items: baseline; font-size: 0; line-height: 1.25;margin-top: -2px;&quot;&gt;&lt;span&gt;&lt;br&gt;&lt;/span&gt;&lt;/div&gt;" style="part=1;resizeHeight=0;strokeColor=none;fillColor=none;align=left;verticalAlign=middle;spacingLeft=4;spacingRight=4;rotatable=0;points=[[0,0.5],[1,0.5]];portConstraint=eastwest;swimlaneFillColor=#edf5ff;strokeOpacity=100;fillOpacity=100;whiteSpace=wrap;overflow=block;blockSpacing=1;html=1;fontSize=13;" vertex="1" parent="Lbswe-sbsGk2GdFfo2za-11">
          <mxGeometry y="104" width="270" height="74.5" as="geometry" />
        </mxCell>
        <mxCell id="Lbswe-sbsGk2GdFfo2za-15" value="GasCompany" style="html=1;overflow=block;blockSpacing=1;swimlane;childLayout=stackLayout;horizontal=1;horizontalStack=0;resizeParent=1;resizeParentMax=0;resizeLast=0;collapsible=0;fontStyle=0;marginBottom=0;swimlaneFillColor=#edf5ff;startSize=28;whiteSpace=wrap;fontSize=16.7;fontColor=#3a414a;align=center;spacing=0;strokeColor=#3a414a;strokeOpacity=100;fillOpacity=100;rounded=1;absoluteArcSize=1;arcSize=9;fillColor=#edf5ff;strokeWidth=1.5;" vertex="1" parent="1">
          <mxGeometry x="-1347" y="1257" width="270" height="178.5" as="geometry" />
        </mxCell>
        <mxCell id="Lbswe-sbsGk2GdFfo2za-16" value="&lt;div style=&quot;display: flex; justify-content: null; text-align: null; align-items: baseline; font-size: 0; line-height: 1.25;margin-top: -2px;&quot;&gt;&lt;span&gt;&lt;br&gt;&lt;/span&gt;&lt;/div&gt;" style="part=1;html=1;resizeHeight=0;strokeColor=none;fillColor=none;align=left;verticalAlign=middle;spacingLeft=4;spacingRight=4;overflow=hidden;rotatable=0;points=[[0,0.5],[1,0.5]];portConstraint=eastwest;swimlaneFillColor=#edf5ff;strokeOpacity=100;fillOpacity=100;whiteSpace=wrap;fontSize=16.7;fontColor=#3a414a;" vertex="1" parent="Lbswe-sbsGk2GdFfo2za-15">
          <mxGeometry y="28" width="270" height="76" as="geometry" />
        </mxCell>
        <mxCell id="Lbswe-sbsGk2GdFfo2za-18" value="&lt;div style=&quot;display: flex; justify-content: null; text-align: null; align-items: baseline; font-size: 0; line-height: 1.25;margin-top: -2px;&quot;&gt;&lt;span&gt;&lt;br&gt;&lt;/span&gt;&lt;/div&gt;" style="part=1;resizeHeight=0;strokeColor=none;fillColor=none;align=left;verticalAlign=middle;spacingLeft=4;spacingRight=4;rotatable=0;points=[[0,0.5],[1,0.5]];portConstraint=eastwest;swimlaneFillColor=#edf5ff;strokeOpacity=100;fillOpacity=100;whiteSpace=wrap;overflow=block;blockSpacing=1;html=1;fontSize=13;" vertex="1" parent="Lbswe-sbsGk2GdFfo2za-15">
          <mxGeometry y="104" width="270" height="74.5" as="geometry" />
        </mxCell>
        <mxCell id="Lbswe-sbsGk2GdFfo2za-19" value="" style="html=1;jettySize=18;whiteSpace=wrap;fontSize=13;strokeColor=#3a414a;strokeOpacity=100;dashed=1;fixDash=1;strokeWidth=0.8;rounded=1;arcSize=24;edgeStyle=orthogonalEdgeStyle;startArrow=none;endArrow=open;exitX=0.5;exitY=0;entryX=0.5;entryY=1;lucidId=psgMl1geHyBB;entryDx=0;entryDy=0;exitDx=0;exitDy=0;" edge="1" parent="1" source="Lbswe-sbsGk2GdFfo2za-15" target="Lbswe-sbsGk2GdFfo2za-6">
          <mxGeometry width="100" height="100" relative="1" as="geometry">
            <Array as="points" />
            <mxPoint x="-650" y="1234" as="sourcePoint" />
            <mxPoint x="-468" y="1115" as="targetPoint" />
          </mxGeometry>
        </mxCell>
        <mxCell id="Lbswe-sbsGk2GdFfo2za-20" value="Implment" style="text;html=1;resizable=0;labelBackgroundColor=default;align=center;verticalAlign=middle;fontColor=#333333;fontSize=13.3;" vertex="1" parent="Lbswe-sbsGk2GdFfo2za-19">
          <mxGeometry relative="1" as="geometry" />
        </mxCell>
        <mxCell id="Lbswe-sbsGk2GdFfo2za-21" value="" style="html=1;jettySize=18;whiteSpace=wrap;fontSize=13;strokeColor=#3a414a;strokeOpacity=100;dashed=1;fixDash=1;strokeWidth=0.8;rounded=1;arcSize=24;edgeStyle=orthogonalEdgeStyle;startArrow=none;endArrow=open;exitX=0.5;exitY=0;entryX=0.5;entryY=1;lucidId=psgMl1geHyBB;entryDx=0;entryDy=0;exitDx=0;exitDy=0;" edge="1" parent="1" source="Lbswe-sbsGk2GdFfo2za-11" target="Lbswe-sbsGk2GdFfo2za-6">
          <mxGeometry width="100" height="100" relative="1" as="geometry">
            <Array as="points" />
            <mxPoint x="-832" y="1239" as="sourcePoint" />
            <mxPoint x="-587" y="1076" as="targetPoint" />
          </mxGeometry>
        </mxCell>
        <mxCell id="Lbswe-sbsGk2GdFfo2za-22" value="Implment" style="text;html=1;resizable=0;labelBackgroundColor=default;align=center;verticalAlign=middle;fontColor=#333333;fontSize=13.3;" vertex="1" parent="Lbswe-sbsGk2GdFfo2za-21">
          <mxGeometry relative="1" as="geometry" />
        </mxCell>
        <mxCell id="Lbswe-sbsGk2GdFfo2za-23" value="" style="html=1;jettySize=18;whiteSpace=wrap;fontSize=13;strokeColor=#3a414a;strokeOpacity=100;dashed=1;fixDash=1;strokeWidth=0.8;rounded=1;arcSize=24;edgeStyle=orthogonalEdgeStyle;startArrow=none;endArrow=open;exitX=0.5;exitY=0;entryX=0.5;entryY=1;lucidId=psgMl1geHyBB;entryDx=0;entryDy=0;exitDx=0;exitDy=0;" edge="1" parent="1" source="Lbswe-sbsGk2GdFfo2za-7" target="Lbswe-sbsGk2GdFfo2za-6">
          <mxGeometry width="100" height="100" relative="1" as="geometry">
            <Array as="points" />
            <mxPoint x="-685.73" y="1190" as="sourcePoint" />
            <mxPoint x="-440.73" y="1027" as="targetPoint" />
          </mxGeometry>
        </mxCell>
        <mxCell id="Lbswe-sbsGk2GdFfo2za-24" value="Implment" style="text;html=1;resizable=0;labelBackgroundColor=default;align=center;verticalAlign=middle;fontColor=#333333;fontSize=13.3;" vertex="1" parent="Lbswe-sbsGk2GdFfo2za-23">
          <mxGeometry relative="1" as="geometry" />
        </mxCell>
        <mxCell id="Lbswe-sbsGk2GdFfo2za-26" value="1" style="text;html=1;resizable=0;labelBackgroundColor=default;align=center;verticalAlign=middle;fontColor=#333333;fontSize=21.8;" vertex="1" parent="1">
          <mxGeometry x="-475.0021330179585" y="579.63" as="geometry">
            <mxPoint x="-334" y="437" as="offset" />
          </mxGeometry>
        </mxCell>
        <mxCell id="Lbswe-sbsGk2GdFfo2za-27" value="BillFactory" style="html=1;overflow=block;blockSpacing=1;swimlane;childLayout=stackLayout;horizontal=1;horizontalStack=0;resizeParent=1;resizeParentMax=0;resizeLast=0;collapsible=0;fontStyle=0;marginBottom=0;swimlaneFillColor=#edf5ff;startSize=28;whiteSpace=wrap;fontSize=16.7;fontColor=#3a414a;align=center;spacing=0;strokeColor=#3a414a;strokeOpacity=100;fillOpacity=100;rounded=1;absoluteArcSize=1;arcSize=9;fillColor=#edf5ff;strokeWidth=1.5;" vertex="1" parent="1">
          <mxGeometry x="-967" y="138" width="343" height="140.5" as="geometry" />
        </mxCell>
        <mxCell id="Lbswe-sbsGk2GdFfo2za-31" value="- bill : Bill" style="text;html=1;strokeColor=none;fillColor=none;align=left;verticalAlign=middle;whiteSpace=wrap;rounded=0;" vertex="1" parent="Lbswe-sbsGk2GdFfo2za-27">
          <mxGeometry y="28" width="343" height="30" as="geometry" />
        </mxCell>
        <mxCell id="Lbswe-sbsGk2GdFfo2za-29" value="" style="line;strokeWidth=1;fillColor=none;align=left;verticalAlign=middle;spacingTop=-1;spacingLeft=3;spacingRight=3;rotatable=0;labelPosition=right;points=[];portConstraint=eastwest;" vertex="1" parent="Lbswe-sbsGk2GdFfo2za-27">
          <mxGeometry y="58" width="343" height="8" as="geometry" />
        </mxCell>
        <mxCell id="Lbswe-sbsGk2GdFfo2za-30" value="&lt;div style=&quot;display: flex; justify-content: null; text-align: null; align-items: baseline; font-size: 0; line-height: 1.25;margin-top: -2px;&quot;&gt;&lt;span&gt;&lt;span style=&quot;font-size:16.7px;color:#3a414a;&quot;&gt;+ CreateBill(billType: BillType, compName: String, ElectonicPaymentNo: int): Bill&lt;br&gt;&lt;/span&gt;&lt;/span&gt;&lt;/div&gt;&lt;div style=&quot;display: flex; justify-content: null; text-align: null; align-items: baseline; font-size: 0; line-height: 1.25;margin-top: -2px;&quot;&gt;&lt;span&gt;&lt;br&gt;&lt;/span&gt;&lt;/div&gt;" style="part=1;resizeHeight=0;strokeColor=none;fillColor=none;align=left;verticalAlign=middle;spacingLeft=4;spacingRight=4;rotatable=0;points=[[0,0.5],[1,0.5]];portConstraint=eastwest;swimlaneFillColor=#edf5ff;strokeOpacity=100;fillOpacity=100;whiteSpace=wrap;overflow=block;blockSpacing=1;html=1;fontSize=13;" vertex="1" parent="Lbswe-sbsGk2GdFfo2za-27">
          <mxGeometry y="66" width="343" height="74.5" as="geometry" />
        </mxCell>
        <mxCell id="Lbswe-sbsGk2GdFfo2za-32" style="edgeStyle=orthogonalEdgeStyle;rounded=0;orthogonalLoop=1;jettySize=auto;html=1;endArrow=none;endFill=0;startArrow=classicThin;startFill=1;entryX=-0.001;entryY=0.04;entryDx=0;entryDy=0;entryPerimeter=0;" edge="1" parent="1" source="eTPqjNfUhPoHLtcQSdr4-30" target="Lbswe-sbsGk2GdFfo2za-30">
          <mxGeometry relative="1" as="geometry">
            <mxPoint x="-1813" y="123" as="targetPoint" />
          </mxGeometry>
        </mxCell>
        <mxCell id="Lbswe-sbsGk2GdFfo2za-33" value="BillType" style="html=1;overflow=block;blockSpacing=1;swimlane;childLayout=stackLayout;horizontal=1;horizontalStack=0;resizeParent=1;resizeParentMax=0;resizeLast=0;collapsible=0;fontStyle=0;marginBottom=0;swimlaneFillColor=#ffffff;startSize=25;whiteSpace=wrap;fontSize=16.7;fontColor=#3a414a;align=center;spacing=0;strokeColor=#3a414a;strokeOpacity=100;fillOpacity=100;rounded=1;absoluteArcSize=1;arcSize=9;fillColor=#ffffff;strokeWidth=1.5;" vertex="1" parent="1">
          <mxGeometry x="-915" y="332" width="270" height="148.25" as="geometry" />
        </mxCell>
        <mxCell id="Lbswe-sbsGk2GdFfo2za-34" value="Gas, Electricity, Water" style="part=1;html=1;resizeHeight=0;strokeColor=none;fillColor=none;align=left;verticalAlign=middle;spacingLeft=4;spacingRight=4;overflow=hidden;rotatable=0;points=[[0,0.5],[1,0.5]];portConstraint=eastwest;swimlaneFillColor=#ffffff;strokeOpacity=100;fillOpacity=100;whiteSpace=wrap;fontSize=16.7;fontColor=#3a414a;" vertex="1" parent="Lbswe-sbsGk2GdFfo2za-33">
          <mxGeometry y="25" width="270" height="52" as="geometry" />
        </mxCell>
        <mxCell id="Lbswe-sbsGk2GdFfo2za-35" value="" style="line;strokeWidth=1;fillColor=none;align=left;verticalAlign=middle;spacingTop=-1;spacingLeft=3;spacingRight=3;rotatable=0;labelPosition=right;points=[];portConstraint=eastwest;" vertex="1" parent="Lbswe-sbsGk2GdFfo2za-33">
          <mxGeometry y="77" width="270" height="8" as="geometry" />
        </mxCell>
        <mxCell id="Lbswe-sbsGk2GdFfo2za-36" value="+ toString()" style="part=1;html=1;resizeHeight=0;strokeColor=none;fillColor=none;align=left;verticalAlign=middle;spacingLeft=4;spacingRight=4;overflow=hidden;rotatable=0;points=[[0,0.5],[1,0.5]];portConstraint=eastwest;swimlaneFillColor=#ffffff;strokeOpacity=100;fillOpacity=100;whiteSpace=wrap;fontSize=16.7;fontColor=#3a414a;" vertex="1" parent="Lbswe-sbsGk2GdFfo2za-33">
          <mxGeometry y="85" width="270" height="63.25" as="geometry" />
        </mxCell>
        <mxCell id="Lbswe-sbsGk2GdFfo2za-39" value="" style="html=1;jettySize=18;whiteSpace=wrap;fontSize=13;strokeColor=#333333;strokeOpacity=100;strokeWidth=0.8;rounded=0;startArrow=none;exitX=0.528;exitY=1.018;exitPerimeter=0;entryX=0.5;entryY=0;lucidId=w9fMFlAfMmFR;exitDx=0;exitDy=0;entryDx=0;entryDy=0;" edge="1" parent="1" source="Lbswe-sbsGk2GdFfo2za-30" target="Lbswe-sbsGk2GdFfo2za-33">
          <mxGeometry width="100" height="100" relative="1" as="geometry">
            <Array as="points" />
            <mxPoint x="-1841" y="350" as="sourcePoint" />
            <mxPoint x="-1947" y="351" as="targetPoint" />
          </mxGeometry>
        </mxCell>
        <mxCell id="Lbswe-sbsGk2GdFfo2za-40" value="has" style="text;html=1;resizable=0;labelBackgroundColor=default;align=center;verticalAlign=middle;fontColor=#333333;fontSize=13;" vertex="1" parent="Lbswe-sbsGk2GdFfo2za-39">
          <mxGeometry relative="1" as="geometry">
            <mxPoint x="10" y="-10" as="offset" />
          </mxGeometry>
        </mxCell>
        <mxCell id="Lbswe-sbsGk2GdFfo2za-41" value="1" style="text;html=1;resizable=0;labelBackgroundColor=default;align=center;verticalAlign=middle;fontColor=#333333;fontSize=13;" vertex="1" parent="Lbswe-sbsGk2GdFfo2za-39">
          <mxGeometry x="0.6666666666666672" relative="1" as="geometry">
            <mxPoint x="3" y="-14" as="offset" />
          </mxGeometry>
        </mxCell>
        <mxCell id="Lbswe-sbsGk2GdFfo2za-42" value="1" style="text;html=1;resizable=0;labelBackgroundColor=default;align=center;verticalAlign=middle;fontColor=#333333;fontSize=21.8;" vertex="1" parent="1">
          <mxGeometry x="-854.0021330179584" y="-286" as="geometry">
            <mxPoint x="-334" y="437" as="offset" />
          </mxGeometry>
        </mxCell>
        <mxCell id="Lbswe-sbsGk2GdFfo2za-44" style="edgeStyle=orthogonalEdgeStyle;rounded=0;orthogonalLoop=1;jettySize=auto;html=1;exitX=1;exitY=0;exitDx=0;exitDy=0;entryX=0.957;entryY=1.006;entryDx=0;entryDy=0;entryPerimeter=0;startArrow=classic;startFill=1;endArrow=none;endFill=0;" edge="1" parent="1" source="hYVjwCgE5RL3LCAW0c2I-84" target="eTPqjNfUhPoHLtcQSdr4-10">
          <mxGeometry relative="1" as="geometry">
            <mxPoint x="2441" y="-341" as="targetPoint" />
            <mxPoint x="-65" y="40" as="sourcePoint" />
            <Array as="points">
              <mxPoint x="-97" y="33" />
              <mxPoint x="2465" y="33" />
            </Array>
          </mxGeometry>
        </mxCell>
        <mxCell id="Lbswe-sbsGk2GdFfo2za-45" style="edgeStyle=orthogonalEdgeStyle;rounded=0;orthogonalLoop=1;jettySize=auto;html=1;exitX=0.994;exitY=1.007;exitDx=0;exitDy=0;entryX=1;entryY=0.5;entryDx=0;entryDy=0;exitPerimeter=0;endArrow=none;endFill=0;startArrow=classic;startFill=1;" edge="1" parent="1" source="Lbswe-sbsGk2GdFfo2za-30" target="eTPqjNfUhPoHLtcQSdr4-10">
          <mxGeometry relative="1" as="geometry">
            <mxPoint x="685" y="307" as="targetPoint" />
            <Array as="points">
              <mxPoint x="-626" y="321" />
              <mxPoint x="126" y="321" />
              <mxPoint x="126" y="503" />
              <mxPoint x="2501" y="503" />
              <mxPoint x="2501" y="-385" />
            </Array>
          </mxGeometry>
        </mxCell>
        <mxCell id="Lbswe-sbsGk2GdFfo2za-46" value="1" style="text;html=1;resizable=0;labelBackgroundColor=default;align=center;verticalAlign=middle;fontColor=#333333;fontSize=21.8;" vertex="1" parent="1">
          <mxGeometry x="-265.0021330179585" y="-156" as="geometry">
            <mxPoint x="-334" y="437" as="offset" />
          </mxGeometry>
        </mxCell>
        <mxCell id="Lbswe-sbsGk2GdFfo2za-47" value="1" style="text;html=1;resizable=0;labelBackgroundColor=default;align=center;verticalAlign=middle;fontColor=#333333;fontSize=21.8;" vertex="1" parent="1">
          <mxGeometry x="260.9978669820415" y="-348" as="geometry">
            <mxPoint x="-334" y="437" as="offset" />
          </mxGeometry>
        </mxCell>
      </root>
    </mxGraphModel>
  </diagram>
</mxfile>
